<svg width="243" height="108" viewBox="0 0 243 108" fill="none" xmlns="http://www.w3.org/2000/svg">
<path d="M30.7734 36.7822H26.7676V41H25.0381V31.0469H31.3613V32.4414H26.7676V35.4014H30.7734V36.7822ZM36.9941 38.6826H33.1387L32.332 41H30.5342L34.2939 31.0469H35.8457L39.6123 41H37.8076L36.9941 38.6826ZM33.624 37.2881H36.5088L35.0664 33.1592L33.624 37.2881ZM48.1914 37.7598C48.0911 38.8216 47.6992 39.651 47.0156 40.248C46.332 40.8405 45.4229 41.1367 44.2881 41.1367C43.4951 41.1367 42.7956 40.9499 42.1895 40.5762C41.5879 40.1979 41.123 39.6624 40.7949 38.9697C40.4668 38.277 40.2959 37.4727 40.2822 36.5566V35.627C40.2822 34.6882 40.4486 33.861 40.7812 33.1455C41.1139 32.43 41.5902 31.8786 42.21 31.4912C42.8343 31.1038 43.5544 30.9102 44.3701 30.9102C45.4684 30.9102 46.3525 31.2087 47.0225 31.8057C47.6924 32.4027 48.082 33.2458 48.1914 34.335H46.4688C46.3867 33.6195 46.1771 33.1045 45.8398 32.79C45.5072 32.471 45.0173 32.3115 44.3701 32.3115C43.6182 32.3115 43.0394 32.5872 42.6338 33.1387C42.2327 33.6855 42.0277 34.4899 42.0186 35.5518V36.4336C42.0186 37.5091 42.21 38.3294 42.5928 38.8945C42.9801 39.4596 43.5452 39.7422 44.2881 39.7422C44.9671 39.7422 45.4775 39.5895 45.8193 39.2842C46.1611 38.9788 46.3776 38.4707 46.4688 37.7598H48.1914ZM56.7295 32.4414H53.626V41H51.9102V32.4414H48.834V31.0469H56.7295V32.4414ZM65.7939 36.2832C65.7939 37.2585 65.6253 38.1152 65.2881 38.8535C64.9508 39.5872 64.4678 40.1523 63.8389 40.5488C63.2145 40.9408 62.4945 41.1367 61.6787 41.1367C60.8721 41.1367 60.152 40.9408 59.5186 40.5488C58.8896 40.1523 58.402 39.5895 58.0557 38.8604C57.7139 38.1312 57.5407 37.2904 57.5361 36.3379V35.7773C57.5361 34.8066 57.707 33.9499 58.0488 33.207C58.3952 32.4642 58.8805 31.8968 59.5049 31.5049C60.1338 31.1084 60.8538 30.9102 61.665 30.9102C62.4762 30.9102 63.194 31.1061 63.8184 31.498C64.4473 31.8854 64.9326 32.446 65.2744 33.1797C65.6162 33.9089 65.7894 34.7588 65.7939 35.7295V36.2832ZM64.0645 35.7637C64.0645 34.6608 63.8548 33.8154 63.4355 33.2275C63.0208 32.6396 62.4307 32.3457 61.665 32.3457C60.9176 32.3457 60.332 32.6396 59.9082 33.2275C59.4889 33.8109 59.2747 34.638 59.2656 35.709V36.2832C59.2656 37.377 59.4775 38.2223 59.9014 38.8193C60.3298 39.4163 60.9222 39.7148 61.6787 39.7148C62.4443 39.7148 63.0322 39.4232 63.4424 38.8398C63.8571 38.2565 64.0645 37.4043 64.0645 36.2832V35.7637ZM71.1738 37.165H69.2461V41H67.5166V31.0469H71.0166C72.165 31.0469 73.0514 31.3044 73.6758 31.8193C74.3001 32.3343 74.6123 33.0794 74.6123 34.0547C74.6123 34.7201 74.4505 35.2783 74.127 35.7295C73.8079 36.1761 73.3613 36.5202 72.7871 36.7617L75.0225 40.9111V41H73.1699L71.1738 37.165ZM69.2461 35.7773H71.0234C71.6068 35.7773 72.0625 35.6315 72.3906 35.3398C72.7188 35.0436 72.8828 34.6403 72.8828 34.1299C72.8828 33.5967 72.7301 33.1842 72.4248 32.8926C72.124 32.6009 71.6729 32.4505 71.0713 32.4414H69.2461V35.7773ZM82.0703 36.5566H77.9824V39.6191H82.7607V41H76.2529V31.0469H82.7129V32.4414H77.9824V35.1895H82.0703V36.5566ZM89.3711 38.4365C89.3711 37.999 89.2161 37.6618 88.9062 37.4248C88.6009 37.1878 88.0472 36.9486 87.2451 36.707C86.443 36.4655 85.805 36.1966 85.3311 35.9004C84.4242 35.3307 83.9707 34.5879 83.9707 33.6719C83.9707 32.8698 84.2965 32.209 84.9482 31.6895C85.6045 31.1699 86.4544 30.9102 87.498 30.9102C88.1908 30.9102 88.8083 31.0378 89.3506 31.293C89.8929 31.5482 90.319 31.9128 90.6289 32.3867C90.9388 32.8561 91.0938 33.3779 91.0938 33.9521H89.3711C89.3711 33.4326 89.207 33.027 88.8789 32.7354C88.5553 32.4391 88.0905 32.291 87.4844 32.291C86.9193 32.291 86.4795 32.4118 86.165 32.6533C85.8551 32.8949 85.7002 33.2321 85.7002 33.665C85.7002 34.0296 85.8688 34.335 86.2061 34.5811C86.5433 34.8226 87.0993 35.0596 87.874 35.292C88.6488 35.5199 89.2708 35.7819 89.7402 36.0781C90.2096 36.3698 90.5537 36.707 90.7725 37.0898C90.9912 37.4681 91.1006 37.9124 91.1006 38.4229C91.1006 39.2523 90.7816 39.9131 90.1436 40.4053C89.5101 40.8929 88.6488 41.1367 87.5596 41.1367C86.8395 41.1367 86.1764 41.0046 85.5703 40.7402C84.9688 40.4714 84.4993 40.1022 84.1621 39.6328C83.8294 39.1634 83.6631 38.6165 83.6631 37.9922H85.3926C85.3926 38.5573 85.5794 38.9948 85.9531 39.3047C86.3268 39.6146 86.8623 39.7695 87.5596 39.7695C88.1611 39.7695 88.6123 39.6488 88.9131 39.4072C89.2184 39.1611 89.3711 38.8376 89.3711 38.4365ZM103.699 37.7598C103.599 38.8216 103.207 39.651 102.523 40.248C101.84 40.8405 100.931 41.1367 99.7959 41.1367C99.0029 41.1367 98.3034 40.9499 97.6973 40.5762C97.0957 40.1979 96.6309 39.6624 96.3027 38.9697C95.9746 38.277 95.8037 37.4727 95.79 36.5566V35.627C95.79 34.6882 95.9564 33.861 96.2891 33.1455C96.6217 32.43 97.098 31.8786 97.7178 31.4912C98.3421 31.1038 99.0622 30.9102 99.8779 30.9102C100.976 30.9102 101.86 31.2087 102.53 31.8057C103.2 32.4027 103.59 33.2458 103.699 34.335H101.977C101.895 33.6195 101.685 33.1045 101.348 32.79C101.015 32.471 100.525 32.3115 99.8779 32.3115C99.126 32.3115 98.5472 32.5872 98.1416 33.1387C97.7406 33.6855 97.5355 34.4899 97.5264 35.5518V36.4336C97.5264 37.5091 97.7178 38.3294 98.1006 38.8945C98.488 39.4596 99.0531 39.7422 99.7959 39.7422C100.475 39.7422 100.985 39.5895 101.327 39.2842C101.669 38.9788 101.885 38.4707 101.977 37.7598H103.699ZM108.908 37.165H106.98V41H105.251V31.0469H108.751C109.899 31.0469 110.786 31.3044 111.41 31.8193C112.035 32.3343 112.347 33.0794 112.347 34.0547C112.347 34.7201 112.185 35.2783 111.861 35.7295C111.542 36.1761 111.096 36.5202 110.521 36.7617L112.757 40.9111V41H110.904L108.908 37.165ZM106.98 35.7773H108.758C109.341 35.7773 109.797 35.6315 110.125 35.3398C110.453 35.0436 110.617 34.6403 110.617 34.1299C110.617 33.5967 110.465 33.1842 110.159 32.8926C109.858 32.6009 109.407 32.4505 108.806 32.4414H106.98V35.7773ZM115.812 41H114.09V31.0469H115.812V41ZM115.437 28.333H117.33L115.437 30.4043H114.104L115.437 28.333ZM124.925 32.4414H121.821V41H120.105V32.4414H117.029V31.0469H124.925V32.4414ZM128.062 41H126.34V31.0469H128.062V41ZM137.783 37.7598C137.683 38.8216 137.291 39.651 136.607 40.248C135.924 40.8405 135.015 41.1367 133.88 41.1367C133.087 41.1367 132.387 40.9499 131.781 40.5762C131.18 40.1979 130.715 39.6624 130.387 38.9697C130.059 38.277 129.888 37.4727 129.874 36.5566V35.627C129.874 34.6882 130.04 33.861 130.373 33.1455C130.706 32.43 131.182 31.8786 131.802 31.4912C132.426 31.1038 133.146 30.9102 133.962 30.9102C135.06 30.9102 135.944 31.2087 136.614 31.8057C137.284 32.4027 137.674 33.2458 137.783 34.335H136.061C135.979 33.6195 135.769 33.1045 135.432 32.79C135.099 32.471 134.609 32.3115 133.962 32.3115C133.21 32.3115 132.631 32.5872 132.226 33.1387C131.825 33.6855 131.619 34.4899 131.61 35.5518V36.4336C131.61 37.5091 131.802 38.3294 132.185 38.8945C132.572 39.4596 133.137 39.7422 133.88 39.7422C134.559 39.7422 135.069 39.5895 135.411 39.2842C135.753 38.9788 135.969 38.4707 136.061 37.7598H137.783ZM147.278 36.2832C147.278 37.2585 147.11 38.1152 146.772 38.8535C146.435 39.5872 145.952 40.1523 145.323 40.5488C144.699 40.9408 143.979 41.1367 143.163 41.1367C142.356 41.1367 141.636 40.9408 141.003 40.5488C140.374 40.1523 139.886 39.5895 139.54 38.8604C139.198 38.1312 139.025 37.2904 139.021 36.3379V35.7773C139.021 34.8066 139.191 33.9499 139.533 33.207C139.88 32.4642 140.365 31.8968 140.989 31.5049C141.618 31.1084 142.338 30.9102 143.149 30.9102C143.961 30.9102 144.678 31.1061 145.303 31.498C145.932 31.8854 146.417 32.446 146.759 33.1797C147.101 33.9089 147.274 34.7588 147.278 35.7295V36.2832ZM145.549 35.7637C145.549 34.6608 145.339 33.8154 144.92 33.2275C144.505 32.6396 143.915 32.3457 143.149 32.3457C142.402 32.3457 141.816 32.6396 141.393 33.2275C140.973 33.8109 140.759 34.638 140.75 35.709V36.2832C140.75 37.377 140.962 38.2223 141.386 38.8193C141.814 39.4163 142.407 39.7148 143.163 39.7148C143.929 39.7148 144.517 39.4232 144.927 38.8398C145.341 38.2565 145.549 37.4043 145.549 36.2832V35.7637ZM154.203 38.4365C154.203 37.999 154.048 37.6618 153.738 37.4248C153.433 37.1878 152.879 36.9486 152.077 36.707C151.275 36.4655 150.637 36.1966 150.163 35.9004C149.256 35.3307 148.803 34.5879 148.803 33.6719C148.803 32.8698 149.129 32.209 149.78 31.6895C150.437 31.1699 151.286 30.9102 152.33 30.9102C153.023 30.9102 153.64 31.0378 154.183 31.293C154.725 31.5482 155.151 31.9128 155.461 32.3867C155.771 32.8561 155.926 33.3779 155.926 33.9521H154.203C154.203 33.4326 154.039 33.027 153.711 32.7354C153.387 32.4391 152.923 32.291 152.316 32.291C151.751 32.291 151.312 32.4118 150.997 32.6533C150.687 32.8949 150.532 33.2321 150.532 33.665C150.532 34.0296 150.701 34.335 151.038 34.5811C151.375 34.8226 151.931 35.0596 152.706 35.292C153.481 35.5199 154.103 35.7819 154.572 36.0781C155.042 36.3698 155.386 36.707 155.604 37.0898C155.823 37.4681 155.933 37.9124 155.933 38.4229C155.933 39.2523 155.614 39.9131 154.976 40.4053C154.342 40.8929 153.481 41.1367 152.392 41.1367C151.672 41.1367 151.008 41.0046 150.402 40.7402C149.801 40.4714 149.331 40.1022 148.994 39.6328C148.661 39.1634 148.495 38.6165 148.495 37.9922H150.225C150.225 38.5573 150.411 38.9948 150.785 39.3047C151.159 39.6146 151.694 39.7695 152.392 39.7695C152.993 39.7695 153.444 39.6488 153.745 39.4072C154.05 39.1611 154.203 38.8376 154.203 38.4365ZM160.937 41V31.0469H163.876C164.756 31.0469 165.535 31.2428 166.214 31.6348C166.897 32.0267 167.426 32.5827 167.8 33.3027C168.174 34.0228 168.36 34.8477 168.36 35.7773V36.2764C168.36 37.2197 168.171 38.0492 167.793 38.7646C167.419 39.4801 166.884 40.0316 166.187 40.4189C165.494 40.8063 164.699 41 163.801 41H160.937ZM162.666 32.4414V39.6191H163.794C164.701 39.6191 165.396 39.3366 165.879 38.7715C166.367 38.2018 166.615 37.3861 166.624 36.3242V35.7705C166.624 34.6904 166.389 33.8656 165.92 33.2959C165.451 32.7262 164.769 32.4414 163.876 32.4414H162.666ZM175.9 36.5566H171.812V39.6191H176.591V41H170.083V31.0469H176.543V32.4414H171.812V35.1895H175.9V36.5566ZM187.303 36.5566H183.215V39.6191H187.993V41H181.485V31.0469H187.945V32.4414H183.215V35.1895H187.303V36.5566ZM185.245 28.333H187.139L185.245 30.4043H183.912L185.245 28.333ZM192.826 34.6426L194.918 31.0469H196.914L193.906 35.9824L196.982 41H194.966L192.826 37.3496L190.68 41H188.67L191.753 35.9824L188.738 31.0469H190.734L192.826 34.6426ZM200.086 41H198.363V31.0469H200.086V41ZM209.198 32.4414H206.095V41H204.379V32.4414H201.303V31.0469H209.198V32.4414ZM218.263 36.2832C218.263 37.2585 218.094 38.1152 217.757 38.8535C217.42 39.5872 216.937 40.1523 216.308 40.5488C215.683 40.9408 214.963 41.1367 214.147 41.1367C213.341 41.1367 212.621 40.9408 211.987 40.5488C211.358 40.1523 210.871 39.5895 210.524 38.8604C210.183 38.1312 210.009 37.2904 210.005 36.3379V35.7773C210.005 34.8066 210.176 33.9499 210.518 33.207C210.864 32.4642 211.349 31.8968 211.974 31.5049C212.603 31.1084 213.323 30.9102 214.134 30.9102C214.945 30.9102 215.663 31.1061 216.287 31.498C216.916 31.8854 217.401 32.446 217.743 33.1797C218.085 33.9089 218.258 34.7588 218.263 35.7295V36.2832ZM216.533 35.7637C216.533 34.6608 216.324 33.8154 215.904 33.2275C215.49 32.6396 214.899 32.3457 214.134 32.3457C213.386 32.3457 212.801 32.6396 212.377 33.2275C211.958 33.8109 211.743 34.638 211.734 35.709V36.2832C211.734 37.377 211.946 38.2223 212.37 38.8193C212.799 39.4163 213.391 39.7148 214.147 39.7148C214.913 39.7148 215.501 39.4232 215.911 38.8398C216.326 38.2565 216.533 37.4043 216.533 36.2832V35.7637ZM86.5957 72.5566H82.5078V75.6191H87.2861V77H80.7783V67.0469H87.2383V68.4414H82.5078V71.1895H86.5957V72.5566ZM96.501 74.5391L98.0322 67.0469H99.748L97.4512 77H95.7969L93.9033 69.7334L91.9688 77H90.3076L88.0107 67.0469H89.7266L91.2715 74.5254L93.1719 67.0469H94.6211L96.501 74.5391ZM106.283 74.6826H102.428L101.621 77H99.8232L103.583 67.0469H105.135L108.901 77H107.097L106.283 74.6826ZM102.913 73.2881H105.798L104.355 69.1592L102.913 73.2881ZM115.149 75.6191H120.468V77H113.058V75.8789L118.205 68.4414H113.092V67.0469H120.304V68.1406L115.149 75.6191ZM123.783 77H122.061V67.0469H123.783V77ZM131.727 72.5566H127.639V75.6191H132.417V77H125.909V67.0469H132.369V68.4414H127.639V71.1895H131.727V72.5566ZM136.067 67.0469L138.938 74.6758L141.803 67.0469H144.038V77H142.315V73.7188L142.486 69.3301L139.547 77H138.31L135.377 69.3369L135.548 73.7188V77H133.825V67.0469H136.067ZM146.089 77V67.0469H149.5C150.626 67.0469 151.482 67.2725 152.07 67.7236C152.658 68.1748 152.952 68.847 152.952 69.7402C152.952 70.196 152.829 70.6061 152.583 70.9707C152.337 71.3353 151.977 71.6178 151.503 71.8184C152.041 71.9642 152.455 72.2399 152.747 72.6455C153.043 73.0465 153.191 73.5296 153.191 74.0947C153.191 75.029 152.891 75.7467 152.289 76.248C151.692 76.7493 150.835 77 149.719 77H146.089ZM147.818 72.5088V75.6191H149.739C150.282 75.6191 150.705 75.4847 151.011 75.2158C151.316 74.9469 151.469 74.5732 151.469 74.0947C151.469 73.0602 150.94 72.5316 149.883 72.5088H147.818ZM147.818 71.2373H149.514C150.051 71.2373 150.471 71.1165 150.771 70.875C151.077 70.6289 151.229 70.2826 151.229 69.8359C151.229 69.3438 151.088 68.9883 150.806 68.7695C150.528 68.5508 150.092 68.4414 149.5 68.4414H147.818V71.2373ZM160.492 74.6826H156.637L155.83 77H154.032L157.792 67.0469H159.344L163.11 77H161.306L160.492 74.6826ZM157.122 73.2881H160.007L158.564 69.1592L157.122 73.2881Z" fill="#287198"/>
<rect x="8.5" y="18.5" width="226" height="71" stroke="#287198"/>
</svg>
