<svg width="384" height="84" viewBox="0 0 384 84" fill="none" xmlns="http://www.w3.org/2000/svg">
<path d="M27.6025 19.0469L30.4736 26.6758L33.3379 19.0469H35.5732V29H33.8506V25.7188L34.0215 21.3301L31.082 29H29.8447L26.9121 21.3369L27.083 25.7188V29H25.3604V19.0469H27.6025ZM43.4414 24.5566H39.3535V27.6191H44.1318V29H37.624V19.0469H44.084V20.4414H39.3535V23.1895H43.4414V24.5566ZM52.8682 20.4414H49.7646V29H48.0488V20.4414H44.9727V19.0469H52.8682V20.4414ZM61.9326 24.2832C61.9326 25.2585 61.764 26.1152 61.4268 26.8535C61.0895 27.5872 60.6064 28.1523 59.9775 28.5488C59.3532 28.9408 58.6331 29.1367 57.8174 29.1367C57.0107 29.1367 56.2907 28.9408 55.6572 28.5488C55.0283 28.1523 54.5407 27.5895 54.1943 26.8604C53.8525 26.1312 53.6794 25.2904 53.6748 24.3379V23.7773C53.6748 22.8066 53.8457 21.9499 54.1875 21.207C54.5339 20.4642 55.0192 19.8968 55.6436 19.5049C56.2725 19.1084 56.9925 18.9102 57.8037 18.9102C58.6149 18.9102 59.3327 19.1061 59.957 19.498C60.5859 19.8854 61.0713 20.446 61.4131 21.1797C61.7549 21.9089 61.9281 22.7588 61.9326 23.7295V24.2832ZM60.2031 23.7637C60.2031 22.6608 59.9935 21.8154 59.5742 21.2275C59.1595 20.6396 58.5693 20.3457 57.8037 20.3457C57.0563 20.3457 56.4707 20.6396 56.0469 21.2275C55.6276 21.8109 55.4134 22.638 55.4043 23.709V24.2832C55.4043 25.377 55.6162 26.2223 56.04 26.8193C56.4684 27.4163 57.0609 27.7148 57.8174 27.7148C58.583 27.7148 59.1709 27.4232 59.5811 26.8398C59.9958 26.2565 60.2031 25.4043 60.2031 24.2832V23.7637ZM63.6553 29V19.0469H66.5947C67.4743 19.0469 68.2536 19.2428 68.9326 19.6348C69.6162 20.0267 70.1449 20.5827 70.5186 21.3027C70.8923 22.0228 71.0791 22.8477 71.0791 23.7773V24.2764C71.0791 25.2197 70.89 26.0492 70.5117 26.7646C70.138 27.4801 69.6025 28.0316 68.9053 28.4189C68.2126 28.8063 67.4173 29 66.5195 29H63.6553ZM65.3848 20.4414V27.6191H66.5127C67.4196 27.6191 68.1146 27.3366 68.5977 26.7715C69.0853 26.2018 69.3337 25.3861 69.3428 24.3242V23.7705C69.3428 22.6904 69.1081 21.8656 68.6387 21.2959C68.1693 20.7262 67.488 20.4414 66.5947 20.4414H65.3848ZM80.7451 24.2832C80.7451 25.2585 80.5765 26.1152 80.2393 26.8535C79.902 27.5872 79.4189 28.1523 78.79 28.5488C78.1657 28.9408 77.4456 29.1367 76.6299 29.1367C75.8232 29.1367 75.1032 28.9408 74.4697 28.5488C73.8408 28.1523 73.3532 27.5895 73.0068 26.8604C72.665 26.1312 72.4919 25.2904 72.4873 24.3379V23.7773C72.4873 22.8066 72.6582 21.9499 73 21.207C73.3464 20.4642 73.8317 19.8968 74.4561 19.5049C75.085 19.1084 75.805 18.9102 76.6162 18.9102C77.4274 18.9102 78.1452 19.1061 78.7695 19.498C79.3984 19.8854 79.8838 20.446 80.2256 21.1797C80.5674 21.9089 80.7406 22.7588 80.7451 23.7295V24.2832ZM79.0156 23.7637C79.0156 22.6608 78.806 21.8154 78.3867 21.2275C77.972 20.6396 77.3818 20.3457 76.6162 20.3457C75.8688 20.3457 75.2832 20.6396 74.8594 21.2275C74.4401 21.8109 74.2259 22.638 74.2168 23.709V24.2832C74.2168 25.377 74.4287 26.2223 74.8525 26.8193C75.2809 27.4163 75.8734 27.7148 76.6299 27.7148C77.3955 27.7148 77.9834 27.4232 78.3936 26.8398C78.8083 26.2565 79.0156 25.4043 79.0156 24.2832V23.7637ZM84.1973 27.6191H88.7158V29H82.4678V19.0469H84.1973V27.6191ZM97.5479 24.2832C97.5479 25.2585 97.3792 26.1152 97.042 26.8535C96.7048 27.5872 96.2217 28.1523 95.5928 28.5488C94.9684 28.9408 94.2484 29.1367 93.4326 29.1367C92.626 29.1367 91.9059 28.9408 91.2725 28.5488C90.6436 28.1523 90.1559 27.5895 89.8096 26.8604C89.4678 26.1312 89.2946 25.2904 89.29 24.3379V23.7773C89.29 22.8066 89.4609 21.9499 89.8027 21.207C90.1491 20.4642 90.6344 19.8968 91.2588 19.5049C91.8877 19.1084 92.6077 18.9102 93.4189 18.9102C94.2301 18.9102 94.9479 19.1061 95.5723 19.498C96.2012 19.8854 96.6865 20.446 97.0283 21.1797C97.3701 21.9089 97.5433 22.7588 97.5479 23.7295V24.2832ZM95.8184 23.7637C95.8184 22.6608 95.6087 21.8154 95.1895 21.2275C94.7747 20.6396 94.1846 20.3457 93.4189 20.3457C92.6715 20.3457 92.0859 20.6396 91.6621 21.2275C91.2428 21.8109 91.0286 22.638 91.0195 23.709V24.2832C91.0195 25.377 91.2314 26.2223 91.6553 26.8193C92.0837 27.4163 92.6761 27.7148 93.4326 27.7148C94.1982 27.7148 94.7861 27.4232 95.1963 26.8398C95.611 26.2565 95.8184 25.4043 95.8184 24.2832V23.7637ZM106.899 27.708C106.539 28.1774 106.04 28.5329 105.402 28.7744C104.764 29.016 104.04 29.1367 103.229 29.1367C102.395 29.1367 101.656 28.9476 101.014 28.5693C100.371 28.1911 99.8743 27.651 99.5234 26.9492C99.1771 26.2428 98.9971 25.4202 98.9834 24.4814V23.7021C98.9834 22.1982 99.3434 21.0247 100.063 20.1816C100.784 19.334 101.788 18.9102 103.078 18.9102C104.186 18.9102 105.065 19.1836 105.717 19.7305C106.368 20.2773 106.76 21.0658 106.893 22.0957H105.197C105.006 20.8971 104.311 20.2979 103.112 20.2979C102.338 20.2979 101.747 20.5781 101.342 21.1387C100.941 21.6947 100.733 22.5127 100.72 23.5928V24.3584C100.72 25.4339 100.945 26.2702 101.396 26.8672C101.852 27.4596 102.483 27.7559 103.29 27.7559C104.174 27.7559 104.803 27.5553 105.177 27.1543V25.2061H103.126V23.8936H106.899V27.708ZM110.625 29H108.902V19.0469H110.625V29ZM110.249 16.333H112.143L110.249 18.4043H108.916L110.249 16.333ZM118.445 26.6826H114.59L113.783 29H111.985L115.745 19.0469H117.297L121.063 29H119.259L118.445 26.6826ZM115.075 25.2881H117.96L116.518 21.1592L115.075 25.2881ZM125.685 29V19.0469H128.624C129.504 19.0469 130.283 19.2428 130.962 19.6348C131.646 20.0267 132.174 20.5827 132.548 21.3027C132.922 22.0228 133.108 22.8477 133.108 23.7773V24.2764C133.108 25.2197 132.919 26.0492 132.541 26.7646C132.167 27.4801 131.632 28.0316 130.935 28.4189C130.242 28.8063 129.447 29 128.549 29H125.685ZM127.414 20.4414V27.6191H128.542C129.449 27.6191 130.144 27.3366 130.627 26.7715C131.115 26.2018 131.363 25.3861 131.372 24.3242V23.7705C131.372 22.6904 131.137 21.8656 130.668 21.2959C130.199 20.7262 129.517 20.4414 128.624 20.4414H127.414ZM140.648 24.5566H136.561V27.6191H141.339V29H134.831V19.0469H141.291V20.4414H136.561V23.1895H140.648V24.5566ZM152.051 24.5566H147.963V27.6191H152.741V29H146.233V19.0469H152.693V20.4414H147.963V23.1895H152.051V24.5566ZM157.656 26.833L160.186 19.0469H162.086L158.504 29H156.829L153.261 19.0469H155.154L157.656 26.833ZM168.266 26.6826H164.41L163.604 29H161.806L165.565 19.0469H167.117L170.884 29H169.079L168.266 26.6826ZM164.896 25.2881H167.78L166.338 21.1592L164.896 25.2881ZM173.748 27.6191H178.267V29H172.019V19.0469H173.748V27.6191ZM186.709 19.0469V25.6982C186.709 26.7555 186.369 27.5941 185.69 28.2139C185.016 28.8291 184.116 29.1367 182.99 29.1367C181.851 29.1367 180.946 28.8337 180.276 28.2275C179.606 27.6169 179.271 26.7715 179.271 25.6914V19.0469H180.994V25.7051C180.994 26.3704 181.163 26.8786 181.5 27.2295C181.837 27.5804 182.334 27.7559 182.99 27.7559C184.321 27.7559 184.986 27.054 184.986 25.6504V19.0469H186.709ZM193.982 26.6826H190.127L189.32 29H187.522L191.282 19.0469H192.834L196.601 29H194.796L193.982 26.6826ZM190.612 25.2881H193.497L192.055 21.1592L190.612 25.2881ZM205.18 25.7598C205.079 26.8216 204.688 27.651 204.004 28.248C203.32 28.8405 202.411 29.1367 201.276 29.1367C200.483 29.1367 199.784 28.9499 199.178 28.5762C198.576 28.1979 198.111 27.6624 197.783 26.9697C197.455 26.277 197.284 25.4727 197.271 24.5566V23.627C197.271 22.6882 197.437 21.861 197.77 21.1455C198.102 20.43 198.578 19.8786 199.198 19.4912C199.823 19.1038 200.543 18.9102 201.358 18.9102C202.457 18.9102 203.341 19.2087 204.011 19.8057C204.681 20.4027 205.07 21.2458 205.18 22.335H203.457C203.375 21.6195 203.165 21.1045 202.828 20.79C202.495 20.471 202.006 20.3115 201.358 20.3115C200.606 20.3115 200.028 20.5872 199.622 21.1387C199.221 21.6855 199.016 22.4899 199.007 23.5518V24.4336C199.007 25.5091 199.198 26.3294 199.581 26.8945C199.968 27.4596 200.534 27.7422 201.276 27.7422C201.955 27.7422 202.466 27.5895 202.808 27.2842C203.149 26.9788 203.366 26.4707 203.457 25.7598H205.18ZM208.557 29H206.834V19.0469H208.557V29ZM218.626 24.2832C218.626 25.2585 218.457 26.1152 218.12 26.8535C217.783 27.5872 217.3 28.1523 216.671 28.5488C216.047 28.9408 215.326 29.1367 214.511 29.1367C213.704 29.1367 212.984 28.9408 212.351 28.5488C211.722 28.1523 211.234 27.5895 210.888 26.8604C210.546 26.1312 210.373 25.2904 210.368 24.3379V23.7773C210.368 22.8066 210.539 21.9499 210.881 21.207C211.227 20.4642 211.713 19.8968 212.337 19.5049C212.966 19.1084 213.686 18.9102 214.497 18.9102C215.308 18.9102 216.026 19.1061 216.65 19.498C217.279 19.8854 217.765 20.446 218.106 21.1797C218.448 21.9089 218.621 22.7588 218.626 23.7295V24.2832ZM216.896 23.7637C216.896 22.6608 216.687 21.8154 216.268 21.2275C215.853 20.6396 215.263 20.3457 214.497 20.3457C213.75 20.3457 213.164 20.6396 212.74 21.2275C212.321 21.8109 212.107 22.638 212.098 23.709V24.2832C212.098 25.377 212.31 26.2223 212.733 26.8193C213.162 27.4163 213.754 27.7148 214.511 27.7148C215.276 27.7148 215.864 27.4232 216.274 26.8398C216.689 26.2565 216.896 25.4043 216.896 24.2832V23.7637ZM215.003 16.3809H216.896L215.003 18.4521H213.67L215.003 16.3809ZM228.244 29H226.515L222.078 21.9385V29H220.349V19.0469H222.078L226.528 26.1357V19.0469H228.244V29ZM233.774 29V19.0469H236.714C237.593 19.0469 238.373 19.2428 239.052 19.6348C239.735 20.0267 240.264 20.5827 240.638 21.3027C241.011 22.0228 241.198 22.8477 241.198 23.7773V24.2764C241.198 25.2197 241.009 26.0492 240.631 26.7646C240.257 27.4801 239.722 28.0316 239.024 28.4189C238.332 28.8063 237.536 29 236.639 29H233.774ZM235.504 20.4414V27.6191H236.632C237.539 27.6191 238.234 27.3366 238.717 26.7715C239.204 26.2018 239.453 25.3861 239.462 24.3242V23.7705C239.462 22.6904 239.227 21.8656 238.758 21.2959C238.288 20.7262 237.607 20.4414 236.714 20.4414H235.504ZM248.738 24.5566H244.65V27.6191H249.429V29H242.921V19.0469H249.381V20.4414H244.65V23.1895H248.738V24.5566ZM256.053 27.6191H260.571V29H254.323V19.0469H256.053V27.6191ZM267.605 26.6826H263.75L262.943 29H261.146L264.905 19.0469H266.457L270.224 29H268.419L267.605 26.6826ZM264.235 25.2881H267.12L265.678 21.1592L264.235 25.2881ZM276.574 25.3018V29H274.845V19.0469H278.652C279.764 19.0469 280.646 19.3363 281.298 19.915C281.954 20.4938 282.282 21.2594 282.282 22.2119C282.282 23.1872 281.961 23.946 281.318 24.4883C280.68 25.0306 279.785 25.3018 278.632 25.3018H276.574ZM276.574 23.9141H278.652C279.268 23.9141 279.737 23.7705 280.061 23.4834C280.384 23.1917 280.546 22.7725 280.546 22.2256C280.546 21.6878 280.382 21.2594 280.054 20.9404C279.726 20.6169 279.274 20.4505 278.7 20.4414H276.574V23.9141ZM288.154 26.6826H284.299L283.492 29H281.694L285.454 19.0469H287.006L290.772 29H288.968L288.154 26.6826ZM284.784 25.2881H287.669L286.227 21.1592L284.784 25.2881ZM286.746 16.3809H288.64L286.746 18.4521H285.413L286.746 16.3809ZM299.386 27.708C299.026 28.1774 298.527 28.5329 297.889 28.7744C297.251 29.016 296.526 29.1367 295.715 29.1367C294.881 29.1367 294.143 28.9476 293.5 28.5693C292.857 28.1911 292.361 27.651 292.01 26.9492C291.663 26.2428 291.483 25.4202 291.47 24.4814V23.7021C291.47 22.1982 291.83 21.0247 292.55 20.1816C293.27 19.334 294.275 18.9102 295.564 18.9102C296.672 18.9102 297.551 19.1836 298.203 19.7305C298.855 20.2773 299.247 21.0658 299.379 22.0957H297.684C297.492 20.8971 296.797 20.2979 295.599 20.2979C294.824 20.2979 294.234 20.5781 293.828 21.1387C293.427 21.6947 293.22 22.5127 293.206 23.5928V24.3584C293.206 25.4339 293.432 26.2702 293.883 26.8672C294.339 27.4596 294.97 27.7559 295.776 27.7559C296.66 27.7559 297.289 27.5553 297.663 27.1543V25.2061H295.612V23.8936H299.386V27.708ZM303.111 29H301.389V19.0469H303.111V29ZM313.133 29H311.403L306.967 21.9385V29H305.237V19.0469H306.967L311.417 26.1357V19.0469H313.133V29ZM320.871 26.6826H317.016L316.209 29H314.411L318.171 19.0469H319.723L323.489 29H321.685L320.871 26.6826ZM317.501 25.2881H320.386L318.943 21.1592L317.501 25.2881ZM335.917 26.5391L337.448 19.0469H339.164L336.867 29H335.213L333.319 21.7334L331.385 29H329.724L327.427 19.0469H329.143L330.688 26.5254L332.588 19.0469H334.037L335.917 26.5391ZM346.246 24.5566H342.158V27.6191H346.937V29H340.429V19.0469H346.889V20.4414H342.158V23.1895H346.246V24.5566ZM348.345 29V19.0469H351.756C352.882 19.0469 353.738 19.2725 354.326 19.7236C354.914 20.1748 355.208 20.847 355.208 21.7402C355.208 22.196 355.085 22.6061 354.839 22.9707C354.593 23.3353 354.233 23.6178 353.759 23.8184C354.297 23.9642 354.711 24.2399 355.003 24.6455C355.299 25.0465 355.447 25.5296 355.447 26.0947C355.447 27.029 355.146 27.7467 354.545 28.248C353.948 28.7493 353.091 29 351.975 29H348.345ZM350.074 24.5088V27.6191H351.995C352.537 27.6191 352.961 27.4847 353.267 27.2158C353.572 26.9469 353.725 26.5732 353.725 26.0947C353.725 25.0602 353.196 24.5316 352.139 24.5088H350.074ZM350.074 23.2373H351.77C352.307 23.2373 352.727 23.1165 353.027 22.875C353.333 22.6289 353.485 22.2826 353.485 21.8359C353.485 21.3438 353.344 20.9883 353.062 20.7695C352.784 20.5508 352.348 20.4414 351.756 20.4414H350.074V23.2373ZM130.012 63.708C129.652 64.1774 129.153 64.5329 128.515 64.7744C127.877 65.016 127.152 65.1367 126.341 65.1367C125.507 65.1367 124.769 64.9476 124.126 64.5693C123.483 64.1911 122.987 63.651 122.636 62.9492C122.289 62.2428 122.109 61.4202 122.096 60.4814V59.7021C122.096 58.1982 122.456 57.0247 123.176 56.1816C123.896 55.334 124.901 54.9102 126.19 54.9102C127.298 54.9102 128.177 55.1836 128.829 55.7305C129.481 56.2773 129.873 57.0658 130.005 58.0957H128.31C128.118 56.8971 127.423 56.2979 126.225 56.2979C125.45 56.2979 124.86 56.5781 124.454 57.1387C124.053 57.6947 123.846 58.5127 123.832 59.5928V60.3584C123.832 61.4339 124.058 62.2702 124.509 62.8672C124.965 63.4596 125.596 63.7559 126.402 63.7559C127.286 63.7559 127.915 63.5553 128.289 63.1543V61.2061H126.238V59.8936H130.012V63.708ZM139.855 60.2832C139.855 61.2585 139.687 62.1152 139.35 62.8535C139.012 63.5872 138.529 64.1523 137.9 64.5488C137.276 64.9408 136.556 65.1367 135.74 65.1367C134.934 65.1367 134.214 64.9408 133.58 64.5488C132.951 64.1523 132.464 63.5895 132.117 62.8604C131.775 62.1312 131.602 61.2904 131.598 60.3379V59.7773C131.598 58.8066 131.769 57.9499 132.11 57.207C132.457 56.4642 132.942 55.8968 133.566 55.5049C134.195 55.1084 134.915 54.9102 135.727 54.9102C136.538 54.9102 137.256 55.1061 137.88 55.498C138.509 55.8854 138.994 56.446 139.336 57.1797C139.678 57.9089 139.851 58.7588 139.855 59.7295V60.2832ZM138.126 59.7637C138.126 58.6608 137.916 57.8154 137.497 57.2275C137.082 56.6396 136.492 56.3457 135.727 56.3457C134.979 56.3457 134.394 56.6396 133.97 57.2275C133.55 57.8109 133.336 58.638 133.327 59.709V60.2832C133.327 61.377 133.539 62.2223 133.963 62.8193C134.391 63.4163 134.984 63.7148 135.74 63.7148C136.506 63.7148 137.094 63.4232 137.504 62.8398C137.919 62.2565 138.126 61.4043 138.126 60.2832V59.7637ZM149.474 65H147.744L143.308 57.9385V65H141.578V55.0469H143.308L147.758 62.1357V55.0469H149.474V65ZM159.112 61.7598C159.012 62.8216 158.62 63.651 157.937 64.248C157.253 64.8405 156.344 65.1367 155.209 65.1367C154.416 65.1367 153.716 64.9499 153.11 64.5762C152.509 64.1979 152.044 63.6624 151.716 62.9697C151.388 62.277 151.217 61.4727 151.203 60.5566V59.627C151.203 58.6882 151.369 57.861 151.702 57.1455C152.035 56.43 152.511 55.8786 153.131 55.4912C153.755 55.1038 154.475 54.9102 155.291 54.9102C156.389 54.9102 157.273 55.2087 157.943 55.8057C158.613 56.4027 159.003 57.2458 159.112 58.335H157.39C157.308 57.6195 157.098 57.1045 156.761 56.79C156.428 56.471 155.938 56.3115 155.291 56.3115C154.539 56.3115 153.96 56.5872 153.555 57.1387C153.154 57.6855 152.949 58.4899 152.939 59.5518V60.4336C152.939 61.5091 153.131 62.3294 153.514 62.8945C153.901 63.4596 154.466 63.7422 155.209 63.7422C155.888 63.7422 156.398 63.5895 156.74 63.2842C157.082 62.9788 157.299 62.4707 157.39 61.7598H159.112ZM155.804 65.0137L155.729 65.3828C156.412 65.5059 156.754 65.9001 156.754 66.5654C156.754 67.0439 156.558 67.4176 156.166 67.6865C155.774 67.9554 155.225 68.0898 154.519 68.0898L154.471 67.1533C154.771 67.1533 155.002 67.0986 155.161 66.9893C155.325 66.8844 155.407 66.7363 155.407 66.5449C155.407 66.3398 155.325 66.1963 155.161 66.1143C155.002 66.0368 154.74 65.9867 154.375 65.9639L154.594 65.0137H155.804ZM166.235 62.6826H162.38L161.573 65H159.775L163.535 55.0469H165.087L168.854 65H167.049L166.235 62.6826ZM162.865 61.2881H165.75L164.308 57.1592L162.865 61.2881ZM171.718 63.6191H176.236V65H169.988V55.0469H171.718V63.6191ZM185.068 60.2832C185.068 61.2585 184.9 62.1152 184.562 62.8535C184.225 63.5872 183.742 64.1523 183.113 64.5488C182.489 64.9408 181.769 65.1367 180.953 65.1367C180.146 65.1367 179.426 64.9408 178.793 64.5488C178.164 64.1523 177.676 63.5895 177.33 62.8604C176.988 62.1312 176.815 61.2904 176.811 60.3379V59.7773C176.811 58.8066 176.981 57.9499 177.323 57.207C177.67 56.4642 178.155 55.8968 178.779 55.5049C179.408 55.1084 180.128 54.9102 180.939 54.9102C181.751 54.9102 182.468 55.1061 183.093 55.498C183.722 55.8854 184.207 56.446 184.549 57.1797C184.891 57.9089 185.064 58.7588 185.068 59.7295V60.2832ZM183.339 59.7637C183.339 58.6608 183.129 57.8154 182.71 57.2275C182.295 56.6396 181.705 56.3457 180.939 56.3457C180.192 56.3457 179.606 56.6396 179.183 57.2275C178.763 57.8109 178.549 58.638 178.54 59.709V60.2832C178.54 61.377 178.752 62.2223 179.176 62.8193C179.604 63.4163 180.197 63.7148 180.953 63.7148C181.719 63.7148 182.307 63.4232 182.717 62.8398C183.132 62.2565 183.339 61.4043 183.339 60.2832V59.7637ZM192.007 61.3018V65H190.277V55.0469H194.085C195.197 55.0469 196.079 55.3363 196.73 55.915C197.387 56.4938 197.715 57.2594 197.715 58.2119C197.715 59.1872 197.394 59.946 196.751 60.4883C196.113 61.0306 195.217 61.3018 194.064 61.3018H192.007ZM192.007 59.9141H194.085C194.7 59.9141 195.17 59.7705 195.493 59.4834C195.817 59.1917 195.979 58.7725 195.979 58.2256C195.979 57.6878 195.814 57.2594 195.486 56.9404C195.158 56.6169 194.707 56.4505 194.133 56.4414H192.007V59.9141ZM203.587 62.6826H199.731L198.925 65H197.127L200.887 55.0469H202.438L206.205 65H204.4L203.587 62.6826ZM200.217 61.2881H203.102L201.659 57.1592L200.217 61.2881ZM209.165 65H207.442V55.0469H209.165V65ZM214.798 62.833L217.327 55.0469H219.228L215.646 65H213.971L210.402 55.0469H212.296L214.798 62.833ZM225.407 62.6826H221.552L220.745 65H218.947L222.707 55.0469H224.259L228.025 65H226.221L225.407 62.6826ZM222.037 61.2881H224.922L223.479 57.1592L222.037 61.2881ZM232.646 65V55.0469H235.586C236.465 55.0469 237.245 55.2428 237.924 55.6348C238.607 56.0267 239.136 56.5827 239.51 57.3027C239.883 58.0228 240.07 58.8477 240.07 59.7773V60.2764C240.07 61.2197 239.881 62.0492 239.503 62.7646C239.129 63.4801 238.594 64.0316 237.896 64.4189C237.204 64.8063 236.409 65 235.511 65H232.646ZM234.376 56.4414V63.6191H235.504C236.411 63.6191 237.106 63.3366 237.589 62.7715C238.076 62.2018 238.325 61.3861 238.334 60.3242V59.7705C238.334 58.6904 238.099 57.8656 237.63 57.2959C237.16 56.7262 236.479 56.4414 235.586 56.4414H234.376ZM243.618 65H241.896V55.0469H243.618V65ZM251.438 62.6826H247.583L246.776 65H244.979L248.738 55.0469H250.29L254.057 65H252.252L251.438 62.6826ZM248.068 61.2881H250.953L249.511 57.1592L248.068 61.2881ZM260.394 62.4365C260.394 61.999 260.239 61.6618 259.929 61.4248C259.623 61.1878 259.07 60.9486 258.268 60.707C257.465 60.4655 256.827 60.1966 256.354 59.9004C255.447 59.3307 254.993 58.5879 254.993 57.6719C254.993 56.8698 255.319 56.209 255.971 55.6895C256.627 55.1699 257.477 54.9102 258.521 54.9102C259.213 54.9102 259.831 55.0378 260.373 55.293C260.915 55.5482 261.341 55.9128 261.651 56.3867C261.961 56.8561 262.116 57.3779 262.116 57.9521H260.394C260.394 57.4326 260.229 57.027 259.901 56.7354C259.578 56.4391 259.113 56.291 258.507 56.291C257.942 56.291 257.502 56.4118 257.188 56.6533C256.878 56.8949 256.723 57.2321 256.723 57.665C256.723 58.0296 256.891 58.335 257.229 58.5811C257.566 58.8226 258.122 59.0596 258.896 59.292C259.671 59.5199 260.293 59.7819 260.763 60.0781C261.232 60.3698 261.576 60.707 261.795 61.0898C262.014 61.4681 262.123 61.9124 262.123 62.4229C262.123 63.2523 261.804 63.9131 261.166 64.4053C260.533 64.8929 259.671 65.1367 258.582 65.1367C257.862 65.1367 257.199 65.0046 256.593 64.7402C255.991 64.4714 255.522 64.1022 255.185 63.6328C254.852 63.1634 254.686 62.6165 254.686 61.9922H256.415C256.415 62.5573 256.602 62.9948 256.976 63.3047C257.349 63.6146 257.885 63.7695 258.582 63.7695C259.184 63.7695 259.635 63.6488 259.936 63.4072C260.241 63.1611 260.394 62.8376 260.394 62.4365Z" fill="#287198"/>
<rect x="8.5" y="6.5" width="367" height="71" stroke="#287198"/>
</svg>
