<svg width="416" height="123" viewBox="0 0 416 123" fill="none" xmlns="http://www.w3.org/2000/svg">
<path d="M28.6084 115.045C27.4219 116.363 25.686 117.425 23.4009 118.231C21.1157 119.037 18.6108 119.439 15.8862 119.439C11.6968 119.439 8.34961 118.158 5.84473 115.594C3.33984 113.031 1.99951 109.464 1.82373 104.894L1.80176 102.125C1.80176 98.9756 2.3584 96.229 3.47168 93.8853C4.58496 91.5269 6.17432 89.7178 8.23975 88.458C10.3198 87.1836 12.7222 86.5464 15.4468 86.5464C19.4312 86.5464 22.522 87.4619 24.7192 89.293C26.9312 91.1094 28.2202 93.8267 28.5864 97.4448H21.1597C20.896 95.6577 20.3247 94.3833 19.4458 93.6216C18.5669 92.8599 17.3218 92.479 15.7104 92.479C13.7769 92.479 12.2827 93.2993 11.228 94.9399C10.1733 96.5806 9.63867 98.9243 9.62402 101.971V103.905C9.62402 107.098 10.166 109.5 11.25 111.112C12.3486 112.708 14.0698 113.507 16.4136 113.507C18.4204 113.507 19.9146 113.06 20.896 112.167V107.201H15.5347V101.905H28.6084V115.045ZM60.1831 103.663C60.1831 106.783 59.6045 109.544 58.4473 111.947C57.29 114.349 55.6421 116.202 53.5034 117.506C51.3794 118.795 48.9551 119.439 46.2305 119.439C43.5059 119.439 41.0889 118.817 38.9795 117.572C36.8701 116.312 35.2222 114.518 34.0356 112.188C32.8638 109.859 32.2485 107.186 32.1899 104.168V102.367C32.1899 99.2319 32.7612 96.4707 33.9038 94.083C35.061 91.6807 36.709 89.8276 38.8477 88.5239C41.001 87.2202 43.4473 86.5684 46.1865 86.5684C48.8965 86.5684 51.3135 87.2129 53.4375 88.502C55.5615 89.791 57.2095 91.6294 58.3813 94.0171C59.5679 96.3901 60.1685 99.1147 60.1831 102.191V103.663ZM52.3389 102.323C52.3389 99.144 51.8042 96.7344 50.7349 95.0938C49.6802 93.4385 48.1641 92.6108 46.1865 92.6108C42.3193 92.6108 40.2759 95.5112 40.0562 101.312L40.0342 103.663C40.0342 106.798 40.5542 109.208 41.5942 110.892C42.6343 112.577 44.1797 113.419 46.2305 113.419C48.1787 113.419 49.6802 112.591 50.7349 110.936C51.7896 109.281 52.3242 106.9 52.3389 103.795V102.323ZM64.1602 119V87.0078H75.6519C79.7681 87.0078 82.8955 87.7622 85.0342 89.271C87.1875 90.7798 88.2642 92.9697 88.2642 95.8408C88.2642 97.4961 87.8833 98.9097 87.1216 100.082C86.3599 101.253 85.2393 102.118 83.7598 102.674C85.4297 103.114 86.7114 103.934 87.605 105.135C88.4985 106.336 88.9453 107.801 88.9453 109.53C88.9453 112.665 87.9492 115.023 85.957 116.605C83.9795 118.172 81.0425 118.971 77.146 119H64.1602ZM71.8726 105.399V113.067H76.9263C78.3179 113.067 79.3872 112.752 80.1343 112.123C80.8813 111.478 81.2549 110.577 81.2549 109.42C81.2549 106.754 79.9292 105.414 77.2778 105.399H71.8726ZM71.8726 100.345H75.8936C77.5781 100.331 78.7793 100.023 79.4971 99.4224C80.2148 98.8218 80.5737 97.9355 80.5737 96.7637C80.5737 95.416 80.1855 94.4492 79.4092 93.8633C78.6328 93.2627 77.3804 92.9624 75.6519 92.9624H71.8726V100.345ZM101.426 119H93.7354V87.0078H101.426V119ZM126.628 105.443H114.5V113.067H128.826V119H106.787V87.0078H128.87V92.9624H114.5V99.708H126.628V105.443ZM143.855 107.706H139.68V119H131.968V87.0078H144.558C148.352 87.0078 151.318 87.8501 153.457 89.5347C155.596 91.2192 156.665 93.5996 156.665 96.6758C156.665 98.9023 156.211 100.748 155.303 102.213C154.409 103.678 153.003 104.864 151.084 105.772L157.764 118.67V119H149.502L143.855 107.706ZM139.68 101.751H144.558C146.023 101.751 147.122 101.371 147.854 100.609C148.601 99.8325 148.975 98.7559 148.975 97.3789C148.975 96.002 148.601 94.9253 147.854 94.1489C147.107 93.3579 146.008 92.9624 144.558 92.9624H139.68V101.751ZM188.042 119H180.374L169.036 99.0928V119H161.323V87.0078H169.036L180.352 106.915V87.0078H188.042V119ZM220.012 103.663C220.012 106.783 219.434 109.544 218.276 111.947C217.119 114.349 215.471 116.202 213.333 117.506C211.208 118.795 208.784 119.439 206.06 119.439C203.335 119.439 200.918 118.817 198.809 117.572C196.699 116.312 195.051 114.518 193.865 112.188C192.693 109.859 192.078 107.186 192.019 104.168V102.367C192.019 99.2319 192.59 96.4707 193.733 94.083C194.89 91.6807 196.538 89.8276 198.677 88.5239C200.83 87.2202 203.276 86.5684 206.016 86.5684C208.726 86.5684 211.143 87.2129 213.267 88.502C215.391 89.791 217.039 91.6294 218.21 94.0171C219.397 96.3901 219.998 99.1147 220.012 102.191V103.663ZM212.168 102.323C212.168 99.144 211.633 96.7344 210.564 95.0938C209.509 93.4385 207.993 92.6108 206.016 92.6108C202.148 92.6108 200.105 95.5112 199.885 101.312L199.863 103.663C199.863 106.798 200.383 109.208 201.423 110.892C202.463 112.577 204.009 113.419 206.06 113.419C208.008 113.419 209.509 112.591 210.564 110.936C211.619 109.281 212.153 106.9 212.168 103.795V102.323ZM235.195 119V87.0078H245.5C248.328 87.0078 250.869 87.6523 253.125 88.9414C255.381 90.2158 257.139 92.0249 258.398 94.3687C259.673 96.6978 260.317 99.3125 260.332 102.213V103.685C260.332 106.615 259.709 109.244 258.464 111.573C257.234 113.888 255.491 115.704 253.235 117.022C250.994 118.326 248.489 118.985 245.72 119H235.195ZM242.908 92.9624V113.067H245.588C247.8 113.067 249.5 112.284 250.686 110.716C251.873 109.134 252.466 106.791 252.466 103.685V102.301C252.466 99.21 251.873 96.8809 250.686 95.3135C249.5 93.7461 247.771 92.9624 245.5 92.9624H242.908ZM272.505 119H264.814V87.0078H272.505V119ZM304.058 115.045C302.871 116.363 301.135 117.425 298.85 118.231C296.565 119.037 294.06 119.439 291.335 119.439C287.146 119.439 283.799 118.158 281.294 115.594C278.789 113.031 277.449 109.464 277.273 104.894L277.251 102.125C277.251 98.9756 277.808 96.229 278.921 93.8853C280.034 91.5269 281.624 89.7178 283.689 88.458C285.769 87.1836 288.171 86.5464 290.896 86.5464C294.88 86.5464 297.971 87.4619 300.168 89.293C302.38 91.1094 303.669 93.8267 304.036 97.4448H296.609C296.345 95.6577 295.774 94.3833 294.895 93.6216C294.016 92.8599 292.771 92.479 291.16 92.479C289.226 92.479 287.732 93.2993 286.677 94.9399C285.623 96.5806 285.088 98.9243 285.073 101.971V103.905C285.073 107.098 285.615 109.5 286.699 111.112C287.798 112.708 289.519 113.507 291.863 113.507C293.87 113.507 295.364 113.06 296.345 112.167V107.201H290.984V101.905H304.058V115.045ZM316.758 119H309.067V87.0078H316.758V119ZM346.575 92.9624H336.973V119H329.26V92.9624H319.834V87.0078H346.575V92.9624ZM365.383 113.023H354.814L352.969 119H344.729L356.462 87.0078H363.713L375.535 119H367.251L365.383 113.023ZM356.66 107.069H363.538L360.088 95.9727L356.66 107.069ZM385.598 113.067H399.023V119H377.886V87.0078H385.598V113.067Z" fill="black"/>
<path d="M10.1348 7.11719L17.3125 26.1895L24.4731 7.11719H30.0615V32H25.7549V23.7969L26.1821 12.8252L18.8335 32H15.7402L8.40869 12.8423L8.83594 23.7969V32H4.5293V7.11719H10.1348ZM49.7319 20.8916H39.5122V28.5479H51.458V32H35.1885V7.11719H51.3384V10.6035H39.5122V17.4736H49.7319V20.8916ZM54.9785 32V7.11719H62.3271C64.526 7.11719 66.4743 7.6071 68.1719 8.58691C69.8809 9.56673 71.2025 10.9567 72.1367 12.7568C73.071 14.557 73.5381 16.6191 73.5381 18.9434V20.1909C73.5381 22.5493 73.0653 24.6229 72.1196 26.4116C71.1854 28.2004 69.8467 29.5789 68.1035 30.5474C66.3717 31.5158 64.3836 32 62.1392 32H54.9785ZM59.3022 10.6035V28.5479H62.1221C64.3893 28.5479 66.1268 27.8415 67.3345 26.4287C68.5535 25.0046 69.1745 22.9652 69.1973 20.3105V18.9263C69.1973 16.2261 68.6105 14.1639 67.437 12.7397C66.2635 11.3156 64.5602 10.6035 62.3271 10.6035H59.3022ZM82.4077 32H78.1011V7.11719H82.4077V32ZM106.709 23.8994C106.459 26.554 105.479 28.6276 103.77 30.1201C102.061 31.6012 99.7881 32.3418 96.9512 32.3418C94.9688 32.3418 93.2199 31.8747 91.7046 30.9404C90.2007 29.9948 89.0386 28.6561 88.2183 26.9243C87.3979 25.1925 86.9707 23.1816 86.9365 20.8916V18.5674C86.9365 16.2204 87.3524 14.1525 88.1841 12.3638C89.0158 10.575 90.2064 9.19645 91.7559 8.22803C93.3167 7.2596 95.1169 6.77539 97.1562 6.77539C99.902 6.77539 102.112 7.52165 103.787 9.01416C105.462 10.5067 106.436 12.6144 106.709 15.3374H102.403C102.198 13.5487 101.674 12.2612 100.831 11.4751C99.9989 10.6776 98.7741 10.2788 97.1562 10.2788C95.2764 10.2788 93.8294 10.9681 92.8154 12.3467C91.8128 13.7139 91.3001 15.7248 91.2773 18.3794V20.584C91.2773 23.2728 91.7559 25.3236 92.7129 26.7363C93.6813 28.1491 95.0941 28.8555 96.9512 28.8555C98.6488 28.8555 99.9248 28.4738 100.779 27.7104C101.634 26.9471 102.175 25.6768 102.403 23.8994H106.709ZM115.152 32H110.845V7.11719H115.152V32ZM140.325 20.208C140.325 22.6462 139.904 24.7881 139.061 26.6338C138.217 28.4681 137.01 29.8809 135.438 30.8721C133.877 31.8519 132.076 32.3418 130.037 32.3418C128.021 32.3418 126.22 31.8519 124.637 30.8721C123.064 29.8809 121.845 28.4738 120.979 26.6509C120.125 24.828 119.692 22.7259 119.681 20.3447V18.9434C119.681 16.5166 120.108 14.3747 120.962 12.5176C121.828 10.6605 123.042 9.24202 124.603 8.26221C126.175 7.271 127.975 6.77539 130.003 6.77539C132.031 6.77539 133.825 7.2653 135.386 8.24512C136.958 9.21354 138.172 10.6149 139.026 12.4492C139.881 14.2721 140.314 16.397 140.325 18.8237V20.208ZM136.001 18.9092C136.001 16.152 135.477 14.0386 134.429 12.5688C133.392 11.0991 131.917 10.3643 130.003 10.3643C128.134 10.3643 126.67 11.0991 125.611 12.5688C124.563 14.0272 124.027 16.0951 124.004 18.7725V20.208C124.004 22.9424 124.534 25.0558 125.594 26.5483C126.665 28.0409 128.146 28.7871 130.037 28.7871C131.951 28.7871 133.421 28.0579 134.446 26.5996C135.483 25.1413 136.001 23.0107 136.001 20.208V18.9092ZM131.268 0.452148H136.001L131.268 5.63037H127.935L131.268 0.452148ZM164.371 32H160.047L148.956 14.3462V32H144.632V7.11719H148.956L160.081 24.8394V7.11719H164.371V32ZM178.196 32V7.11719H185.545C187.744 7.11719 189.692 7.6071 191.39 8.58691C193.099 9.56673 194.42 10.9567 195.354 12.7568C196.289 14.557 196.756 16.6191 196.756 18.9434V20.1909C196.756 22.5493 196.283 24.6229 195.337 26.4116C194.403 28.2004 193.064 29.5789 191.321 30.5474C189.59 31.5158 187.601 32 185.357 32H178.196ZM182.52 10.6035V28.5479H185.34C187.607 28.5479 189.345 27.8415 190.552 26.4287C191.771 25.0046 192.392 22.9652 192.415 20.3105V18.9263C192.415 16.2261 191.828 14.1639 190.655 12.7397C189.481 11.3156 187.778 10.6035 185.545 10.6035H182.52ZM215.606 20.8916H205.386V28.5479H217.332V32H201.062V7.11719H217.212V10.6035H205.386V17.4736H215.606V20.8916ZM225.176 28.5479H236.473V32H220.853V7.11719H225.176V28.5479ZM268.243 32H263.919L252.828 14.3462V32H248.504V7.11719H252.828L263.953 24.8394V7.11719H268.243V32ZM277.916 32H273.609V7.11719H277.916V32ZM291.998 26.5825L298.321 7.11719H303.072L294.117 32H289.93L281.009 7.11719H285.743L291.998 26.5825ZM320.435 20.8916H310.215V28.5479H322.161V32H305.892V7.11719H322.042V10.6035H310.215V17.4736H320.435V20.8916ZM330.005 28.5479H341.302V32H325.682V7.11719H330.005V28.5479ZM4.5293 73V48.1172H11.8779C14.0768 48.1172 16.0251 48.6071 17.7227 49.5869C19.4316 50.5667 20.7533 51.9567 21.6875 53.7568C22.6217 55.557 23.0889 57.6191 23.0889 59.9434V61.1909C23.0889 63.5493 22.616 65.6229 21.6704 67.4116C20.7362 69.2004 19.3975 70.5789 17.6543 71.5474C15.9225 72.5158 13.9344 73 11.6899 73H4.5293ZM8.85303 51.6035V69.5479H11.6729C13.9401 69.5479 15.6776 68.8415 16.8853 67.4287C18.1043 66.0046 18.7253 63.9652 18.748 61.3105V59.9263C18.748 57.2261 18.1613 55.1639 16.9878 53.7397C15.8143 52.3156 14.111 51.6035 11.8779 51.6035H8.85303ZM41.939 61.8916H31.7192V69.5479H43.665V73H27.3955V48.1172H43.5454V51.6035H31.7192V58.4736H41.939V61.8916ZM74.8882 64.8994C74.6375 67.554 73.6577 69.6276 71.9487 71.1201C70.2397 72.6012 67.9668 73.3418 65.1299 73.3418C63.1475 73.3418 61.3986 72.8747 59.8833 71.9404C58.3794 70.9948 57.2173 69.6561 56.397 67.9243C55.5767 66.1925 55.1494 64.1816 55.1152 61.8916V59.5674C55.1152 57.2204 55.5311 55.1525 56.3628 53.3638C57.1945 51.575 58.3851 50.1965 59.9346 49.228C61.4954 48.2596 63.2956 47.7754 65.335 47.7754C68.0807 47.7754 70.291 48.5216 71.9658 50.0142C73.6406 51.5067 74.6147 53.6144 74.8882 56.3374H70.5815C70.3765 54.5487 69.8524 53.2612 69.0093 52.4751C68.1776 51.6776 66.9528 51.2788 65.335 51.2788C63.4551 51.2788 62.0081 51.9681 60.9941 53.3467C59.9915 54.7139 59.4788 56.7248 59.4561 59.3794V61.584C59.4561 64.2728 59.9346 66.3236 60.8916 67.7363C61.86 69.1491 63.2728 69.8555 65.1299 69.8555C66.8275 69.8555 68.1035 69.4738 68.958 68.7104C69.8125 67.9471 70.3537 66.6768 70.5815 64.8994H74.8882ZM96.9683 48.1172V64.7456C96.9683 67.3888 96.1195 69.4852 94.4219 71.0347C92.7357 72.5728 90.4855 73.3418 87.6714 73.3418C84.8231 73.3418 82.5615 72.5841 80.8867 71.0688C79.2119 69.5422 78.3745 67.4287 78.3745 64.7285V48.1172H82.6812V64.7627C82.6812 66.4261 83.1027 67.6965 83.9458 68.5737C84.7889 69.451 86.0308 69.8896 87.6714 69.8896C90.9982 69.8896 92.6616 68.1351 92.6616 64.626V48.1172H96.9683ZM107.205 48.1172L114.383 67.1895L121.543 48.1172H127.132V73H122.825V64.7969L123.252 53.8252L115.904 73H112.811L105.479 53.8423L105.906 64.7969V73H101.6V48.1172H107.205ZM136.583 63.7544V73H132.259V48.1172H141.778C144.558 48.1172 146.762 48.8407 148.392 50.2876C150.032 51.7345 150.853 53.6486 150.853 56.0298C150.853 58.4679 150.049 60.3649 148.443 61.7207C146.848 63.0765 144.609 63.7544 141.727 63.7544H136.583ZM136.583 60.2852H141.778C143.316 60.2852 144.489 59.9263 145.298 59.2085C146.107 58.4793 146.512 57.4312 146.512 56.064C146.512 54.7196 146.102 53.6486 145.281 52.8511C144.461 52.0422 143.333 51.6263 141.897 51.6035H136.583V60.2852ZM158.97 69.5479H170.267V73H154.646V48.1172H158.97V69.5479ZM178.145 73H173.838V48.1172H178.145V73ZM189.065 48.1172L196.243 67.1895L203.404 48.1172H208.992V73H204.686V64.7969L205.113 53.8252L197.764 73H194.671L187.339 53.8423L187.767 64.7969V73H183.46V48.1172H189.065ZM218.682 73H214.375V48.1172H218.682V73ZM238.541 61.8916H228.321V69.5479H240.267V73H223.997V48.1172H240.147V51.6035H228.321V58.4736H238.541V61.8916ZM263.526 73H259.202L248.111 55.3462V73H243.787V48.1172H248.111L259.236 65.8394V48.1172H263.526V73ZM286.102 51.6035H278.343V73H274.053V51.6035H266.363V48.1172H286.102V51.6035ZM308.763 61.208C308.763 63.6462 308.341 65.7881 307.498 67.6338C306.655 69.4681 305.447 70.8809 303.875 71.8721C302.314 72.8519 300.514 73.3418 298.475 73.3418C296.458 73.3418 294.658 72.8519 293.074 71.8721C291.502 70.8809 290.283 69.4738 289.417 67.6509C288.562 65.828 288.13 63.7259 288.118 61.3447V59.9434C288.118 57.5166 288.545 55.3747 289.4 53.5176C290.266 51.6605 291.479 50.242 293.04 49.2622C294.612 48.271 296.412 47.7754 298.44 47.7754C300.468 47.7754 302.263 48.2653 303.824 49.2451C305.396 50.2135 306.609 51.6149 307.464 53.4492C308.318 55.2721 308.751 57.397 308.763 59.8237V61.208ZM304.439 59.9092C304.439 57.152 303.915 55.0386 302.867 53.5688C301.83 52.0991 300.354 51.3643 298.44 51.3643C296.572 51.3643 295.108 52.0991 294.048 53.5688C293 55.0272 292.465 57.0951 292.442 59.7725V61.208C292.442 63.9424 292.972 66.0558 294.031 67.5483C295.102 69.0409 296.583 69.7871 298.475 69.7871C300.389 69.7871 301.858 69.0579 302.884 67.5996C303.921 66.1413 304.439 64.0107 304.439 61.208V59.9092ZM321.785 73V48.1172H329.134C331.333 48.1172 333.281 48.6071 334.979 49.5869C336.688 50.5667 338.009 51.9567 338.943 53.7568C339.878 55.557 340.345 57.6191 340.345 59.9434V61.1909C340.345 63.5493 339.872 65.6229 338.926 67.4116C337.992 69.2004 336.653 70.5789 334.91 71.5474C333.178 72.5158 331.19 73 328.946 73H321.785ZM326.109 51.6035V69.5479H328.929C331.196 69.5479 332.933 68.8415 334.141 67.4287C335.36 66.0046 335.981 63.9652 336.004 61.3105V59.9263C336.004 57.2261 335.417 55.1639 334.244 53.7397C333.07 52.3156 331.367 51.6035 329.134 51.6035H326.109ZM359.195 61.8916H348.975V69.5479H360.921V73H344.651V48.1172H360.801V51.6035H348.975V58.4736H359.195V61.8916Z" fill="black"/>
<g clip-path="url(#clip0)">
<path d="M385.228 27.006C384.904 26.9534 384.578 26.9889 384.281 27.104V19.7887C385.757 19.0986 386.723 17.6051 386.723 15.9517C386.723 13.6165 384.824 11.7167 382.488 11.7167C380.153 11.7167 378.253 13.6165 378.253 15.9517C378.253 17.6049 379.22 19.0987 380.696 19.7887V24.6616C380.399 24.5465 380.073 24.5108 379.749 24.5635C379.054 24.6766 378.499 25.2207 378.317 25.9088C378.004 25.7733 377.654 25.7282 377.307 25.7847C376.612 25.8978 376.057 26.4419 375.875 27.13C375.561 26.9944 375.211 26.9494 374.864 27.0059C374.012 27.1446 373.369 27.9329 373.369 28.8396V32.757C373.369 33.4023 373.448 34.0469 373.604 34.6727L374.388 37.8073C374.522 38.3428 374.59 38.8941 374.59 39.4459V43.4287C374.59 43.7442 374.846 44 375.161 44C375.477 44 375.732 43.7442 375.732 43.4287V39.4459C375.732 38.8008 375.653 38.1562 375.497 37.5302L374.713 34.3955C374.579 33.8602 374.511 33.3089 374.511 32.757V28.8397C374.511 28.4928 374.747 28.1827 375.048 28.1337C375.244 28.1017 375.434 28.1532 375.582 28.2788C375.727 28.4028 375.811 28.5834 375.811 28.7743C375.811 29.0898 376.067 29.3456 376.382 29.3456C376.698 29.3456 376.954 29.0898 376.954 28.7743V27.6184C376.954 27.2715 377.189 26.9614 377.49 26.9124C377.687 26.8805 377.876 26.9319 378.024 27.0576C378.17 27.1815 378.253 27.3621 378.253 27.5531C378.253 27.8686 378.509 28.1243 378.825 28.1243C379.14 28.1243 379.396 27.8686 379.396 27.5531V26.3971C379.396 26.0503 379.632 25.7402 379.932 25.6913C380.129 25.6592 380.319 25.7108 380.467 25.8364C380.612 25.9603 380.696 26.1409 380.696 26.3319C380.696 26.6474 380.952 26.9032 381.267 26.9032C381.583 26.9032 381.838 26.6474 381.838 26.3319V16.017C381.838 15.6701 382.074 15.36 382.375 15.311C382.571 15.279 382.761 15.3305 382.909 15.4561C383.055 15.58 383.138 15.7606 383.138 15.9516V28.7743C383.138 29.0898 383.394 29.3456 383.709 29.3456C384.025 29.3456 384.281 29.0898 384.281 28.7743C384.281 28.5834 384.364 28.4028 384.51 28.2788C384.658 28.1532 384.848 28.1017 385.044 28.1336C385.345 28.1826 385.581 28.4927 385.581 28.8396V32.8548C385.581 33.3468 385.526 33.84 385.42 34.3203L384.547 38.2454C384.423 38.8071 384.359 39.3835 384.359 39.9588V43.4287C384.359 43.7443 384.615 44 384.931 44C385.246 44 385.502 43.7443 385.502 43.4287V39.9588C385.502 39.4667 385.556 38.9736 385.663 38.4933L386.535 34.5682C386.66 34.0066 386.723 33.4301 386.723 32.8548V28.8397C386.723 27.933 386.08 27.1447 385.228 27.006ZM383.65 14.5858C383.248 14.2446 382.717 14.0978 382.192 14.1833C381.339 14.322 380.696 15.1103 380.696 16.017V18.4717C379.896 17.901 379.396 16.9675 379.396 15.9517C379.396 14.2466 380.783 12.8593 382.489 12.8593C384.194 12.8593 385.581 14.2466 385.581 15.9517C385.581 16.9677 385.081 17.9011 384.281 18.4717V15.9517C384.281 15.425 384.051 14.9272 383.65 14.5858Z" fill="black"/>
<path d="M372.515 13.0087C372.207 12.9365 371.9 13.1269 371.828 13.434C371.73 13.8493 371.656 14.2752 371.608 14.6999C371.572 15.0134 371.797 15.2965 372.111 15.3321C372.133 15.3346 372.155 15.3359 372.176 15.3359C372.463 15.3359 372.71 15.1207 372.743 14.8291C372.786 14.4488 372.853 14.0674 372.94 13.6957C373.012 13.3885 372.822 13.0809 372.515 13.0087Z" fill="black"/>
<path d="M392.376 11.2362C392.192 10.8514 391.983 10.4731 391.755 10.1118C391.586 9.84514 391.234 9.76531 390.967 9.9338C390.7 10.1022 390.62 10.4551 390.789 10.7219C390.993 11.0454 391.18 11.3841 391.345 11.7286C391.443 11.9339 391.647 12.0538 391.861 12.0538C391.943 12.0538 392.027 12.0358 392.106 11.9979C392.391 11.8619 392.512 11.5208 392.376 11.2362Z" fill="black"/>
<path d="M376.794 7.25245C376.607 6.99849 376.249 6.94441 375.996 7.13164C375.652 7.38476 375.32 7.66111 375.008 7.95285C374.778 8.16842 374.766 8.52993 374.981 8.76035C375.094 8.88048 375.246 8.94126 375.398 8.94126C375.538 8.94126 375.678 8.89023 375.789 8.78717C376.068 8.52567 376.366 8.27811 376.674 8.05127C376.928 7.86404 376.982 7.50633 376.794 7.25245Z" fill="black"/>
<path d="M374.144 9.75026C373.881 9.57598 373.527 9.64796 373.352 9.91098C373.116 10.2673 372.899 10.6412 372.706 11.0223C372.564 11.3041 372.677 11.6477 372.959 11.7898C373.042 11.8315 373.129 11.8512 373.216 11.8512C373.425 11.8512 373.626 11.7364 373.726 11.5373C373.899 11.196 374.093 10.8612 374.305 10.5421C374.479 10.279 374.407 9.92454 374.144 9.75026Z" fill="black"/>
<path d="M393.394 14.9358C393.354 14.51 393.29 14.0826 393.201 13.6656C393.135 13.3569 392.832 13.1597 392.523 13.2255C392.215 13.2911 392.018 13.5944 392.083 13.903C392.163 14.2764 392.221 14.6592 392.256 15.0406C392.283 15.337 392.532 15.5595 392.824 15.5595C392.842 15.5595 392.859 15.5588 392.877 15.5571C393.191 15.5281 393.422 15.25 393.394 14.9358Z" fill="black"/>
<path d="M386.972 5.95686C386.582 5.78167 386.177 5.62803 385.77 5.50014C385.468 5.40568 385.148 5.57318 385.054 5.87429C384.959 6.17532 385.127 6.49593 385.428 6.59031C385.793 6.70472 386.154 6.84221 386.504 6.99905C386.58 7.03317 386.659 7.0494 386.737 7.0494C386.955 7.0494 387.164 6.92387 387.259 6.71211C387.388 6.42433 387.26 6.0862 386.972 5.95686Z" fill="black"/>
<path d="M383.249 5.02598C382.824 4.9968 382.39 4.99223 381.965 5.01226C381.65 5.02712 381.407 5.29463 381.421 5.60983C381.436 5.92503 381.704 6.16779 382.019 6.15363C382.4 6.13565 382.79 6.13976 383.17 6.16589C383.184 6.1668 383.197 6.16726 383.21 6.16726C383.508 6.16726 383.759 5.93654 383.78 5.63505C383.801 5.3203 383.563 5.04761 383.249 5.02598Z" fill="black"/>
<path d="M380.142 5.82131C380.054 5.5183 379.737 5.34379 379.434 5.43169C379.024 5.5506 378.617 5.69532 378.223 5.86184C377.933 5.98485 377.797 6.32001 377.92 6.61061C378.012 6.82846 378.224 6.95932 378.446 6.95932C378.521 6.95932 378.596 6.94477 378.669 6.914C379.021 6.76501 379.385 6.63552 379.753 6.5291C380.056 6.44128 380.23 6.1244 380.142 5.82131Z" fill="black"/>
<path d="M390.142 8.11818C389.836 7.81966 389.51 7.53614 389.173 7.27556C388.923 7.08284 388.564 7.12916 388.371 7.37893C388.178 7.62877 388.225 7.98754 388.474 8.18026C388.777 8.4138 389.07 8.66791 389.343 8.9355C389.455 9.04412 389.599 9.09813 389.743 9.09813C389.891 9.09813 390.039 9.04062 390.151 8.92606C390.372 8.70036 390.368 8.33869 390.142 8.11818Z" fill="black"/>
<path d="M372.953 18.2606C372.863 17.8895 372.795 17.5085 372.749 17.1282C372.712 16.8149 372.428 16.5913 372.114 16.6287C371.801 16.6661 371.577 16.9505 371.615 17.2637C371.665 17.6884 371.742 18.1141 371.842 18.5286C371.905 18.7903 372.139 18.9661 372.397 18.9661C372.441 18.9661 372.486 18.9609 372.531 18.95C372.838 18.8759 373.027 18.5673 372.953 18.2606Z" fill="black"/>
<path d="M389.797 23.3453C389.587 23.1092 389.226 23.0873 388.99 23.2965C388.704 23.5503 388.399 23.7897 388.086 24.0081C387.827 24.1884 387.763 24.5445 387.943 24.8034C388.054 24.9629 388.232 25.0483 388.412 25.0483C388.525 25.0483 388.639 25.0151 388.738 24.9459C389.088 24.7021 389.428 24.4349 389.748 24.1517C389.984 23.9425 390.006 23.5814 389.797 23.3453Z" fill="black"/>
<path d="M391.901 20.3717C391.623 20.2219 391.277 20.3254 391.127 20.6032C390.945 20.9395 390.742 21.2689 390.522 21.5824C390.34 21.8406 390.402 22.1968 390.661 22.3782C390.761 22.4484 390.875 22.482 390.989 22.482C391.168 22.482 391.345 22.3973 391.457 22.239C391.702 21.8892 391.93 21.5213 392.132 21.1458C392.282 20.8681 392.179 20.5215 391.901 20.3717Z" fill="black"/>
<path d="M376.718 23.8844C376.409 23.6592 376.11 23.4132 375.828 23.1531C375.597 22.9388 375.235 22.9529 375.021 23.1845C374.807 23.4161 374.821 23.7776 375.052 23.9919C375.366 24.282 375.7 24.5565 376.045 24.8078C376.146 24.8818 376.264 24.9174 376.381 24.9174C376.557 24.9174 376.731 24.836 376.843 24.6826C377.029 24.4276 376.973 24.0702 376.718 23.8844Z" fill="black"/>
<path d="M386.799 25.4146C386.684 25.1208 386.353 24.9757 386.059 25.0906C386.023 25.1047 385.987 25.1186 385.95 25.1323C385.655 25.2439 385.506 25.5735 385.618 25.8687C385.704 26.0974 385.922 26.2382 386.152 26.2382C386.219 26.2382 386.288 26.2263 386.354 26.2012C386.395 26.186 386.435 26.1705 386.475 26.1547C386.769 26.0399 386.914 25.7085 386.799 25.4146Z" fill="black"/>
<path d="M374.335 21.4062C374.121 21.0881 373.925 20.7544 373.751 20.4143C373.607 20.1335 373.263 20.0222 372.982 20.166C372.701 20.3098 372.59 20.654 372.734 20.9348C372.928 21.3146 373.148 21.6873 373.386 22.0424C373.496 22.2068 373.677 22.2956 373.861 22.2956C373.97 22.2956 374.081 22.2643 374.178 22.1988C374.44 22.0231 374.51 21.6682 374.335 21.4062Z" fill="black"/>
<path d="M392.846 16.8533C392.534 16.809 392.245 17.0265 392.2 17.3388C392.147 17.7181 392.07 18.0978 391.972 18.4673C391.891 18.7723 392.073 19.085 392.378 19.1658C392.427 19.1787 392.476 19.1849 392.525 19.1849C392.778 19.1849 393.009 19.0156 393.077 18.7595C393.186 18.3466 393.272 17.9225 393.332 17.4988C393.376 17.1865 393.158 16.8974 392.846 16.8533Z" fill="black"/>
<path d="M382.489 8.05307C378.133 8.05307 374.59 11.5964 374.59 15.9517C374.59 18.7637 376.104 21.3857 378.541 22.7944C378.631 22.8464 378.73 22.8712 378.827 22.8712C379.024 22.8712 379.216 22.7688 379.322 22.5857C379.48 22.3125 379.386 21.9631 379.113 21.8052C377.028 20.5999 375.733 18.3569 375.733 15.9516C375.733 12.2263 378.763 9.19557 382.489 9.19557C386.214 9.19557 389.245 12.2263 389.245 15.9516C389.245 18.3559 387.95 20.5984 385.866 21.8039C385.593 21.9619 385.5 22.3113 385.658 22.5845C385.816 22.8576 386.165 22.9509 386.439 22.7929C388.874 21.3839 390.387 18.7624 390.387 15.9516C390.387 11.5964 386.844 8.05307 382.489 8.05307Z" fill="black"/>
</g>
<defs>
<clipPath id="clip0">
<rect width="39" height="39" fill="white" transform="translate(363 5)"/>
</clipPath>
</defs>
</svg>
