<svg width="503" height="123" viewBox="0 0 503 123" fill="none" xmlns="http://www.w3.org/2000/svg">
<path d="M115.608 115.045C114.422 116.363 112.686 117.425 110.401 118.231C108.116 119.037 105.611 119.439 102.886 119.439C98.6968 119.439 95.3496 118.158 92.8447 115.594C90.3398 113.031 88.9995 109.464 88.8237 104.894L88.8018 102.125C88.8018 98.9756 89.3584 96.229 90.4717 93.8853C91.585 91.5269 93.1743 89.7178 95.2397 88.458C97.3198 87.1836 99.7222 86.5464 102.447 86.5464C106.431 86.5464 109.522 87.4619 111.719 89.293C113.931 91.1094 115.22 93.8267 115.586 97.4448H108.16C107.896 95.6577 107.325 94.3833 106.446 93.6216C105.567 92.8599 104.322 92.479 102.71 92.479C100.777 92.479 99.2827 93.2993 98.228 94.9399C97.1733 96.5806 96.6387 98.9243 96.624 101.971V103.905C96.624 107.098 97.166 109.5 98.25 111.112C99.3486 112.708 101.07 113.507 103.414 113.507C105.42 113.507 106.915 113.06 107.896 112.167V107.201H102.535V101.905H115.608V115.045ZM147.183 103.663C147.183 106.783 146.604 109.544 145.447 111.947C144.29 114.349 142.642 116.202 140.503 117.506C138.379 118.795 135.955 119.439 133.23 119.439C130.506 119.439 128.089 118.817 125.979 117.572C123.87 116.312 122.222 114.518 121.036 112.188C119.864 109.859 119.249 107.186 119.19 104.168V102.367C119.19 99.2319 119.761 96.4707 120.904 94.083C122.061 91.6807 123.709 89.8276 125.848 88.5239C128.001 87.2202 130.447 86.5684 133.187 86.5684C135.896 86.5684 138.313 87.2129 140.438 88.502C142.562 89.791 144.209 91.6294 145.381 94.0171C146.568 96.3901 147.168 99.1147 147.183 102.191V103.663ZM139.339 102.323C139.339 99.144 138.804 96.7344 137.735 95.0938C136.68 93.4385 135.164 92.6108 133.187 92.6108C129.319 92.6108 127.276 95.5112 127.056 101.312L127.034 103.663C127.034 106.798 127.554 109.208 128.594 110.892C129.634 112.577 131.18 113.419 133.23 113.419C135.179 113.419 136.68 112.591 137.735 110.936C138.79 109.281 139.324 106.9 139.339 103.795V102.323ZM151.16 119V87.0078H162.652C166.768 87.0078 169.896 87.7622 172.034 89.271C174.188 90.7798 175.264 92.9697 175.264 95.8408C175.264 97.4961 174.883 98.9097 174.122 100.082C173.36 101.253 172.239 102.118 170.76 102.674C172.43 103.114 173.711 103.934 174.605 105.135C175.499 106.336 175.945 107.801 175.945 109.53C175.945 112.665 174.949 115.023 172.957 116.605C170.979 118.172 168.042 118.971 164.146 119H151.16ZM158.873 105.399V113.067H163.926C165.318 113.067 166.387 112.752 167.134 112.123C167.881 111.478 168.255 110.577 168.255 109.42C168.255 106.754 166.929 105.414 164.278 105.399H158.873ZM158.873 100.345H162.894C164.578 100.331 165.779 100.023 166.497 99.4224C167.215 98.8218 167.574 97.9355 167.574 96.7637C167.574 95.416 167.186 94.4492 166.409 93.8633C165.633 93.2627 164.38 92.9624 162.652 92.9624H158.873V100.345ZM188.426 119H180.735V87.0078H188.426V119ZM213.628 105.443H201.5V113.067H215.826V119H193.787V87.0078H215.87V92.9624H201.5V99.708H213.628V105.443ZM230.855 107.706H226.68V119H218.968V87.0078H231.558C235.352 87.0078 238.318 87.8501 240.457 89.5347C242.596 91.2192 243.665 93.5996 243.665 96.6758C243.665 98.9023 243.211 100.748 242.303 102.213C241.409 103.678 240.003 104.864 238.084 105.772L244.764 118.67V119H236.502L230.855 107.706ZM226.68 101.751H231.558C233.023 101.751 234.122 101.371 234.854 100.609C235.601 99.8325 235.975 98.7559 235.975 97.3789C235.975 96.002 235.601 94.9253 234.854 94.1489C234.107 93.3579 233.008 92.9624 231.558 92.9624H226.68V101.751ZM275.042 119H267.374L256.036 99.0928V119H248.323V87.0078H256.036L267.352 106.915V87.0078H275.042V119ZM307.012 103.663C307.012 106.783 306.434 109.544 305.276 111.947C304.119 114.349 302.471 116.202 300.333 117.506C298.208 118.795 295.784 119.439 293.06 119.439C290.335 119.439 287.918 118.817 285.809 117.572C283.699 116.312 282.051 114.518 280.865 112.188C279.693 109.859 279.078 107.186 279.019 104.168V102.367C279.019 99.2319 279.59 96.4707 280.733 94.083C281.89 91.6807 283.538 89.8276 285.677 88.5239C287.83 87.2202 290.276 86.5684 293.016 86.5684C295.726 86.5684 298.143 87.2129 300.267 88.502C302.391 89.791 304.039 91.6294 305.21 94.0171C306.397 96.3901 306.998 99.1147 307.012 102.191V103.663ZM299.168 102.323C299.168 99.144 298.633 96.7344 297.564 95.0938C296.509 93.4385 294.993 92.6108 293.016 92.6108C289.148 92.6108 287.105 95.5112 286.885 101.312L286.863 103.663C286.863 106.798 287.383 109.208 288.423 110.892C289.463 112.577 291.009 113.419 293.06 113.419C295.008 113.419 296.509 112.591 297.564 110.936C298.619 109.281 299.153 106.9 299.168 103.795V102.323ZM322.195 119V87.0078H332.5C335.328 87.0078 337.869 87.6523 340.125 88.9414C342.381 90.2158 344.139 92.0249 345.398 94.3687C346.673 96.6978 347.317 99.3125 347.332 102.213V103.685C347.332 106.615 346.709 109.244 345.464 111.573C344.234 113.888 342.491 115.704 340.235 117.022C337.994 118.326 335.489 118.985 332.72 119H322.195ZM329.908 92.9624V113.067H332.588C334.8 113.067 336.5 112.284 337.686 110.716C338.873 109.134 339.466 106.791 339.466 103.685V102.301C339.466 99.21 338.873 96.8809 337.686 95.3135C336.5 93.7461 334.771 92.9624 332.5 92.9624H329.908ZM359.505 119H351.814V87.0078H359.505V119ZM391.058 115.045C389.871 116.363 388.135 117.425 385.85 118.231C383.565 119.037 381.06 119.439 378.335 119.439C374.146 119.439 370.799 118.158 368.294 115.594C365.789 113.031 364.449 109.464 364.273 104.894L364.251 102.125C364.251 98.9756 364.808 96.229 365.921 93.8853C367.034 91.5269 368.624 89.7178 370.689 88.458C372.769 87.1836 375.171 86.5464 377.896 86.5464C381.88 86.5464 384.971 87.4619 387.168 89.293C389.38 91.1094 390.669 93.8267 391.036 97.4448H383.609C383.345 95.6577 382.774 94.3833 381.895 93.6216C381.016 92.8599 379.771 92.479 378.16 92.479C376.226 92.479 374.732 93.2993 373.677 94.9399C372.623 96.5806 372.088 98.9243 372.073 101.971V103.905C372.073 107.098 372.615 109.5 373.699 111.112C374.798 112.708 376.519 113.507 378.863 113.507C380.87 113.507 382.364 113.06 383.345 112.167V107.201H377.984V101.905H391.058V115.045ZM403.758 119H396.067V87.0078H403.758V119ZM433.575 92.9624H423.973V119H416.26V92.9624H406.834V87.0078H433.575V92.9624ZM452.383 113.023H441.814L439.969 119H431.729L443.462 87.0078H450.713L462.535 119H454.251L452.383 113.023ZM443.66 107.069H450.538L447.088 95.9727L443.66 107.069ZM472.598 113.067H486.023V119H464.886V87.0078H472.598V113.067Z" fill="white"/>
<path d="M97.1348 7.11719L104.312 26.1895L111.473 7.11719H117.062V32H112.755V23.7969L113.182 12.8252L105.833 32H102.74L95.4087 12.8423L95.8359 23.7969V32H91.5293V7.11719H97.1348ZM136.732 20.8916H126.512V28.5479H138.458V32H122.188V7.11719H138.338V10.6035H126.512V17.4736H136.732V20.8916ZM141.979 32V7.11719H149.327C151.526 7.11719 153.474 7.6071 155.172 8.58691C156.881 9.56673 158.202 10.9567 159.137 12.7568C160.071 14.557 160.538 16.6191 160.538 18.9434V20.1909C160.538 22.5493 160.065 24.6229 159.12 26.4116C158.185 28.2004 156.847 29.5789 155.104 30.5474C153.372 31.5158 151.384 32 149.139 32H141.979ZM146.302 10.6035V28.5479H149.122C151.389 28.5479 153.127 27.8415 154.334 26.4287C155.554 25.0046 156.174 22.9652 156.197 20.3105V18.9263C156.197 16.2261 155.611 14.1639 154.437 12.7397C153.264 11.3156 151.56 10.6035 149.327 10.6035H146.302ZM169.408 32H165.101V7.11719H169.408V32ZM193.709 23.8994C193.459 26.554 192.479 28.6276 190.77 30.1201C189.061 31.6012 186.788 32.3418 183.951 32.3418C181.969 32.3418 180.22 31.8747 178.705 30.9404C177.201 29.9948 176.039 28.6561 175.218 26.9243C174.398 25.1925 173.971 23.1816 173.937 20.8916V18.5674C173.937 16.2204 174.352 14.1525 175.184 12.3638C176.016 10.575 177.206 9.19645 178.756 8.22803C180.317 7.2596 182.117 6.77539 184.156 6.77539C186.902 6.77539 189.112 7.52165 190.787 9.01416C192.462 10.5067 193.436 12.6144 193.709 15.3374H189.403C189.198 13.5487 188.674 12.2612 187.831 11.4751C186.999 10.6776 185.774 10.2788 184.156 10.2788C182.276 10.2788 180.829 10.9681 179.815 12.3467C178.813 13.7139 178.3 15.7248 178.277 18.3794V20.584C178.277 23.2728 178.756 25.3236 179.713 26.7363C180.681 28.1491 182.094 28.8555 183.951 28.8555C185.649 28.8555 186.925 28.4738 187.779 27.7104C188.634 26.9471 189.175 25.6768 189.403 23.8994H193.709ZM202.152 32H197.845V7.11719H202.152V32ZM227.325 20.208C227.325 22.6462 226.904 24.7881 226.061 26.6338C225.217 28.4681 224.01 29.8809 222.438 30.8721C220.877 31.8519 219.076 32.3418 217.037 32.3418C215.021 32.3418 213.22 31.8519 211.637 30.8721C210.064 29.8809 208.845 28.4738 207.979 26.6509C207.125 24.828 206.692 22.7259 206.681 20.3447V18.9434C206.681 16.5166 207.108 14.3747 207.962 12.5176C208.828 10.6605 210.042 9.24202 211.603 8.26221C213.175 7.271 214.975 6.77539 217.003 6.77539C219.031 6.77539 220.825 7.2653 222.386 8.24512C223.958 9.21354 225.172 10.6149 226.026 12.4492C226.881 14.2721 227.314 16.397 227.325 18.8237V20.208ZM223.001 18.9092C223.001 16.152 222.477 14.0386 221.429 12.5688C220.392 11.0991 218.917 10.3643 217.003 10.3643C215.134 10.3643 213.67 11.0991 212.611 12.5688C211.563 14.0272 211.027 16.0951 211.004 18.7725V20.208C211.004 22.9424 211.534 25.0558 212.594 26.5483C213.665 28.0409 215.146 28.7871 217.037 28.7871C218.951 28.7871 220.421 28.0579 221.446 26.5996C222.483 25.1413 223.001 23.0107 223.001 20.208V18.9092ZM218.268 0.452148H223.001L218.268 5.63037H214.935L218.268 0.452148ZM251.371 32H247.047L235.956 14.3462V32H231.632V7.11719H235.956L247.081 24.8394V7.11719H251.371V32ZM265.196 32V7.11719H272.545C274.744 7.11719 276.692 7.6071 278.39 8.58691C280.099 9.56673 281.42 10.9567 282.354 12.7568C283.289 14.557 283.756 16.6191 283.756 18.9434V20.1909C283.756 22.5493 283.283 24.6229 282.337 26.4116C281.403 28.2004 280.064 29.5789 278.321 30.5474C276.59 31.5158 274.601 32 272.357 32H265.196ZM269.52 10.6035V28.5479H272.34C274.607 28.5479 276.345 27.8415 277.552 26.4287C278.771 25.0046 279.392 22.9652 279.415 20.3105V18.9263C279.415 16.2261 278.828 14.1639 277.655 12.7397C276.481 11.3156 274.778 10.6035 272.545 10.6035H269.52ZM302.606 20.8916H292.386V28.5479H304.332V32H288.062V7.11719H304.212V10.6035H292.386V17.4736H302.606V20.8916ZM312.176 28.5479H323.473V32H307.853V7.11719H312.176V28.5479ZM355.243 32H350.919L339.828 14.3462V32H335.504V7.11719H339.828L350.953 24.8394V7.11719H355.243V32ZM364.916 32H360.609V7.11719H364.916V32ZM378.998 26.5825L385.321 7.11719H390.072L381.117 32H376.93L368.009 7.11719H372.743L378.998 26.5825ZM407.435 20.8916H397.215V28.5479H409.161V32H392.892V7.11719H409.042V10.6035H397.215V17.4736H407.435V20.8916ZM417.005 28.5479H428.302V32H412.682V7.11719H417.005V28.5479ZM91.5293 73V48.1172H98.8779C101.077 48.1172 103.025 48.6071 104.723 49.5869C106.432 50.5667 107.753 51.9567 108.688 53.7568C109.622 55.557 110.089 57.6191 110.089 59.9434V61.1909C110.089 63.5493 109.616 65.6229 108.67 67.4116C107.736 69.2004 106.397 70.5789 104.654 71.5474C102.923 72.5158 100.934 73 98.6899 73H91.5293ZM95.853 51.6035V69.5479H98.6729C100.94 69.5479 102.678 68.8415 103.885 67.4287C105.104 66.0046 105.725 63.9652 105.748 61.3105V59.9263C105.748 57.2261 105.161 55.1639 103.988 53.7397C102.814 52.3156 101.111 51.6035 98.8779 51.6035H95.853ZM128.939 61.8916H118.719V69.5479H130.665V73H114.396V48.1172H130.545V51.6035H118.719V58.4736H128.939V61.8916ZM161.888 64.8994C161.638 67.554 160.658 69.6276 158.949 71.1201C157.24 72.6012 154.967 73.3418 152.13 73.3418C150.147 73.3418 148.399 72.8747 146.883 71.9404C145.379 70.9948 144.217 69.6561 143.397 67.9243C142.577 66.1925 142.149 64.1816 142.115 61.8916V59.5674C142.115 57.2204 142.531 55.1525 143.363 53.3638C144.194 51.575 145.385 50.1965 146.935 49.228C148.495 48.2596 150.296 47.7754 152.335 47.7754C155.081 47.7754 157.291 48.5216 158.966 50.0142C160.641 51.5067 161.615 53.6144 161.888 56.3374H157.582C157.376 54.5487 156.852 53.2612 156.009 52.4751C155.178 51.6776 153.953 51.2788 152.335 51.2788C150.455 51.2788 149.008 51.9681 147.994 53.3467C146.992 54.7139 146.479 56.7248 146.456 59.3794V61.584C146.456 64.2728 146.935 66.3236 147.892 67.7363C148.86 69.1491 150.273 69.8555 152.13 69.8555C153.827 69.8555 155.104 69.4738 155.958 68.7104C156.812 67.9471 157.354 66.6768 157.582 64.8994H161.888ZM183.968 48.1172V64.7456C183.968 67.3888 183.119 69.4852 181.422 71.0347C179.736 72.5728 177.486 73.3418 174.671 73.3418C171.823 73.3418 169.562 72.5841 167.887 71.0688C166.212 69.5422 165.375 67.4287 165.375 64.7285V48.1172H169.681V64.7627C169.681 66.4261 170.103 67.6965 170.946 68.5737C171.789 69.451 173.031 69.8896 174.671 69.8896C177.998 69.8896 179.662 68.1351 179.662 64.626V48.1172H183.968ZM194.205 48.1172L201.383 67.1895L208.543 48.1172H214.132V73H209.825V64.7969L210.252 53.8252L202.904 73H199.811L192.479 53.8423L192.906 64.7969V73H188.6V48.1172H194.205ZM223.583 63.7544V73H219.259V48.1172H228.778C231.558 48.1172 233.762 48.8407 235.392 50.2876C237.032 51.7345 237.853 53.6486 237.853 56.0298C237.853 58.4679 237.049 60.3649 235.443 61.7207C233.848 63.0765 231.609 63.7544 228.727 63.7544H223.583ZM223.583 60.2852H228.778C230.316 60.2852 231.489 59.9263 232.298 59.2085C233.107 58.4793 233.512 57.4312 233.512 56.064C233.512 54.7196 233.102 53.6486 232.281 52.8511C231.461 52.0422 230.333 51.6263 228.897 51.6035H223.583V60.2852ZM245.97 69.5479H257.267V73H241.646V48.1172H245.97V69.5479ZM265.145 73H260.838V48.1172H265.145V73ZM276.065 48.1172L283.243 67.1895L290.404 48.1172H295.992V73H291.686V64.7969L292.113 53.8252L284.764 73H281.671L274.339 53.8423L274.767 64.7969V73H270.46V48.1172H276.065ZM305.682 73H301.375V48.1172H305.682V73ZM325.541 61.8916H315.321V69.5479H327.267V73H310.997V48.1172H327.147V51.6035H315.321V58.4736H325.541V61.8916ZM350.526 73H346.202L335.111 55.3462V73H330.787V48.1172H335.111L346.236 65.8394V48.1172H350.526V73ZM373.102 51.6035H365.343V73H361.053V51.6035H353.363V48.1172H373.102V51.6035ZM395.763 61.208C395.763 63.6462 395.341 65.7881 394.498 67.6338C393.655 69.4681 392.447 70.8809 390.875 71.8721C389.314 72.8519 387.514 73.3418 385.475 73.3418C383.458 73.3418 381.658 72.8519 380.074 71.8721C378.502 70.8809 377.283 69.4738 376.417 67.6509C375.562 65.828 375.13 63.7259 375.118 61.3447V59.9434C375.118 57.5166 375.545 55.3747 376.4 53.5176C377.266 51.6605 378.479 50.242 380.04 49.2622C381.612 48.271 383.412 47.7754 385.44 47.7754C387.468 47.7754 389.263 48.2653 390.824 49.2451C392.396 50.2135 393.609 51.6149 394.464 53.4492C395.318 55.2721 395.751 57.397 395.763 59.8237V61.208ZM391.439 59.9092C391.439 57.152 390.915 55.0386 389.867 53.5688C388.83 52.0991 387.354 51.3643 385.44 51.3643C383.572 51.3643 382.108 52.0991 381.048 53.5688C380 55.0272 379.465 57.0951 379.442 59.7725V61.208C379.442 63.9424 379.972 66.0558 381.031 67.5483C382.102 69.0409 383.583 69.7871 385.475 69.7871C387.389 69.7871 388.858 69.0579 389.884 67.5996C390.921 66.1413 391.439 64.0107 391.439 61.208V59.9092ZM408.785 73V48.1172H416.134C418.333 48.1172 420.281 48.6071 421.979 49.5869C423.688 50.5667 425.009 51.9567 425.943 53.7568C426.878 55.557 427.345 57.6191 427.345 59.9434V61.1909C427.345 63.5493 426.872 65.6229 425.926 67.4116C424.992 69.2004 423.653 70.5789 421.91 71.5474C420.178 72.5158 418.19 73 415.946 73H408.785ZM413.109 51.6035V69.5479H415.929C418.196 69.5479 419.933 68.8415 421.141 67.4287C422.36 66.0046 422.981 63.9652 423.004 61.3105V59.9263C423.004 57.2261 422.417 55.1639 421.244 53.7397C420.07 52.3156 418.367 51.6035 416.134 51.6035H413.109ZM446.195 61.8916H435.975V69.5479H447.921V73H431.651V48.1172H447.801V51.6035H435.975V58.4736H446.195V61.8916Z" fill="white"/>
<g clip-path="url(#clip0)">
<path d="M55.8543 72.2971C55.0407 72.1648 54.2207 72.2542 53.4753 72.5434V54.1613C57.1842 52.4273 59.6126 48.6742 59.6126 44.5195C59.6126 38.6518 54.8389 33.8779 48.971 33.8779C43.103 33.8779 38.3293 38.6518 38.3293 44.5195C38.3293 48.6738 40.7579 52.4275 44.4666 54.1613V66.4059C43.7215 66.1167 42.9015 66.0271 42.0874 66.1596C40.342 66.4436 38.9461 67.8111 38.4888 69.54C37.7017 69.1995 36.8226 69.0862 35.9502 69.2282C34.2047 69.5123 32.8088 70.8797 32.3515 72.6087C31.5645 72.268 30.6851 72.1548 29.8129 72.2969C27.6705 72.6454 26.0546 74.6263 26.0546 76.9046V86.7484C26.0546 88.3699 26.2541 89.9895 26.6472 91.5621L28.6164 99.4389C28.9527 100.784 29.1233 102.17 29.1233 103.556V113.564C29.1233 114.357 29.766 115 30.5588 115C31.3516 115 31.9944 114.357 31.9944 113.564V103.556C31.9944 101.935 31.7949 100.316 31.4018 98.7426L29.4326 90.8656C29.0963 89.5204 28.9257 88.1352 28.9257 86.7483V76.9048C28.9257 76.0331 29.5179 75.2539 30.2738 75.1308C30.7678 75.0504 31.2444 75.1798 31.6158 75.4955C31.9819 75.8069 32.1919 76.2607 32.1919 76.7406C32.1919 77.5334 32.8346 78.1761 33.6274 78.1761C34.4202 78.1761 35.063 77.5334 35.063 76.7406V73.836C35.063 72.9643 35.6552 72.1851 36.4111 72.062C36.9051 71.9816 37.3817 72.111 37.753 72.4266C38.1192 72.7381 38.3291 73.1919 38.3291 73.6717C38.3291 74.4645 38.9719 75.1073 39.7647 75.1073C40.5575 75.1073 41.2002 74.4645 41.2002 73.6717V70.7671C41.2002 69.8955 41.7925 69.1163 42.5483 68.9934C43.0427 68.9128 43.5191 69.0424 43.8903 69.358C44.2564 69.6694 44.4664 70.1232 44.4664 70.6031C44.4664 71.3959 45.1091 72.0387 45.902 72.0387C46.6948 72.0387 47.3375 71.3959 47.3375 70.6031V44.6836C47.3375 43.8119 47.9297 43.0327 48.6856 42.9096C49.1796 42.8292 49.6564 42.9586 50.0275 43.2743C50.3937 43.5857 50.6037 44.0395 50.6037 44.5194V76.7406C50.6037 77.5334 51.2464 78.1761 52.0392 78.1761C52.832 78.1761 53.4748 77.5334 53.4748 76.7406C53.4748 76.2607 53.6847 75.8069 54.0509 75.4955C54.4218 75.1798 54.899 75.0504 55.3927 75.1306C56.1487 75.2537 56.7409 76.0329 56.7409 76.9046V86.994C56.7409 88.2305 56.605 89.4697 56.3367 90.6767L54.1449 100.54C53.8312 101.951 53.6723 103.399 53.6723 104.845V113.565C53.6723 114.357 54.315 115 55.1078 115C55.9007 115 56.5434 114.357 56.5434 113.565V104.845C56.5434 103.609 56.6793 102.37 56.9476 101.163L59.1394 91.2995C59.4532 89.8883 59.612 88.4397 59.612 86.994V76.9048C59.6126 74.6265 57.9969 72.6456 55.8543 72.2971ZM51.8888 41.0874C50.8803 40.2299 49.5454 39.8611 48.2254 40.0759C46.0828 40.4244 44.4672 42.4053 44.4672 44.6836V50.852C42.4563 49.4178 41.201 47.0721 41.201 44.5195C41.201 40.2349 44.6867 36.749 48.9715 36.749C53.2564 36.749 56.7421 40.2349 56.7421 44.5195C56.7421 47.0725 55.4868 49.418 53.4759 50.852V44.5195C53.4759 43.1962 52.8973 41.9453 51.8888 41.0874Z" fill="white"/>
<path d="M23.9084 37.1245C23.1364 36.9431 22.3637 37.4214 22.1823 38.1931C21.9369 39.2367 21.7509 40.3068 21.6293 41.3741C21.5399 42.162 22.1059 42.8732 22.8936 42.9628C22.9487 42.9691 23.0034 42.9722 23.0576 42.9722C23.7779 42.9722 24.3988 42.4315 24.4822 41.6987C24.5909 40.7431 24.7575 39.7847 24.9772 38.8506C25.1587 38.0789 24.6803 37.306 23.9084 37.1245Z" fill="white"/>
<path d="M73.8159 32.6704C73.3541 31.7034 72.8292 30.7529 72.256 29.8451C71.8328 29.175 70.9462 28.9744 70.2757 29.3978C69.6054 29.821 69.405 30.7077 69.8284 31.378C70.3413 32.1909 70.8114 33.0421 71.2251 33.9079C71.4714 34.4237 71.9855 34.725 72.5214 34.725C72.7287 34.725 72.9397 34.6798 73.1393 34.5845C73.8544 34.2428 74.1574 33.3857 73.8159 32.6704Z" fill="white"/>
<path d="M34.6629 22.66C34.1925 22.0218 33.2936 21.8859 32.6556 22.3564C31.793 22.9924 30.9581 23.6869 30.1744 24.42C29.5956 24.9616 29.5652 25.8701 30.1069 26.4491C30.3892 26.7509 30.7716 26.9036 31.1552 26.9036C31.5066 26.9036 31.8588 26.7754 32.1358 26.5164C32.8381 25.8593 33.5863 25.2373 34.3594 24.6673C34.9975 24.1968 35.1334 23.2979 34.6629 22.66Z" fill="white"/>
<path d="M28.0025 28.9365C27.3416 28.4986 26.4509 28.6795 26.0128 29.3404C25.4196 30.2358 24.8738 31.1752 24.3903 32.1328C24.0329 32.8411 24.3171 33.7045 25.025 34.0617C25.2324 34.1664 25.4531 34.2159 25.6708 34.2159C26.1954 34.2159 26.7009 33.9273 26.9534 33.4269C27.3863 32.5694 27.875 31.728 28.4064 30.9262C28.8443 30.2653 28.6634 29.3745 28.0025 28.9365Z" fill="white"/>
<path d="M76.3736 41.967C76.2753 40.8968 76.1124 39.823 75.89 38.7751C75.7252 37.9995 74.9624 37.5039 74.1874 37.6691C73.4118 37.8341 72.9168 38.5963 73.0815 39.3717C73.2807 40.31 73.4266 41.2718 73.5148 42.2301C73.5833 42.9749 74.209 43.5342 74.9425 43.5342C74.9865 43.5342 75.0309 43.5323 75.0757 43.5281C75.8653 43.4553 76.4464 42.7565 76.3736 41.967Z" fill="white"/>
<path d="M60.2365 19.4045C59.2565 18.9642 58.2401 18.5782 57.2161 18.2568C56.4591 18.0194 55.6539 18.4404 55.4167 19.197C55.1796 19.9534 55.6005 20.7591 56.3569 20.9962C57.2735 21.2837 58.1829 21.6292 59.0599 22.0233C59.2512 22.109 59.4508 22.1498 59.6474 22.1498C60.1952 22.1498 60.7187 21.8344 60.9577 21.3023C61.2826 20.5791 60.9598 19.7295 60.2365 19.4045Z" fill="white"/>
<path d="M50.8814 17.0652C49.8153 16.9919 48.7248 16.9804 47.656 17.0308C46.864 17.0681 46.2524 17.7403 46.2896 18.5324C46.3267 19.3244 46.9993 19.9344 47.791 19.8988C48.7501 19.8536 49.7286 19.864 50.6848 19.9296C50.7182 19.9319 50.7515 19.9331 50.7846 19.9331C51.5326 19.9331 52.1635 19.3533 52.2153 18.5957C52.2697 17.8048 51.6725 17.1196 50.8814 17.0652Z" fill="white"/>
<path d="M43.0755 19.0638C42.8546 18.3024 42.058 17.8639 41.2969 18.0848C40.266 18.3836 39.2422 18.7472 38.2536 19.1656C37.5233 19.4748 37.1819 20.317 37.491 21.0472C37.7228 21.5946 38.2545 21.9234 38.8138 21.9234C39.0004 21.9234 39.1899 21.8869 39.3725 21.8095C40.2574 21.4352 41.1737 21.1098 42.0962 20.8424C42.8578 20.6217 43.2962 19.8254 43.0755 19.0638Z" fill="white"/>
<path d="M68.2031 24.8354C67.4353 24.0853 66.6159 23.3729 65.767 22.7181C65.1392 22.2338 64.2379 22.3502 63.7534 22.9778C63.2692 23.6057 63.3853 24.5072 64.013 24.9914C64.7738 25.5783 65.5084 26.2168 66.1965 26.8892C66.4756 27.1622 66.8377 27.2979 67.1997 27.2979C67.5726 27.2979 67.9454 27.1534 68.2266 26.8655C68.7807 26.2984 68.7702 25.3896 68.2031 24.8354Z" fill="white"/>
<path d="M25.0093 50.3215C24.7842 49.389 24.6123 48.4316 24.4982 47.4759C24.4041 46.6886 23.6905 46.1269 22.9025 46.2209C22.1152 46.3148 21.5532 47.0294 21.6472 47.8164C21.7749 48.8837 21.9669 49.9533 22.2182 50.9949C22.3769 51.6526 22.9647 52.0942 23.6126 52.0942C23.724 52.0942 23.8373 52.0811 23.9504 52.0538C24.7212 51.8677 25.1951 51.0921 25.0093 50.3215Z" fill="white"/>
<path d="M67.335 63.0984C66.8092 62.505 65.9019 62.4501 65.3085 62.9757C64.5886 63.6135 63.8238 64.2151 63.0354 64.764C62.3848 65.2169 62.2244 66.1117 62.6775 66.7623C62.9565 67.1631 63.4031 67.3779 63.8569 67.3779C64.14 67.3779 64.426 67.2944 64.6757 67.1204C65.5556 66.5079 66.4091 65.8365 67.2123 65.1248C67.8058 64.599 67.8607 63.6918 67.335 63.0984Z" fill="white"/>
<path d="M72.6225 55.6263C71.9248 55.25 71.0539 55.5101 70.6774 56.208C70.2213 57.0532 69.7097 57.8809 69.1565 58.6685C68.701 59.3174 68.8574 60.2126 69.5062 60.6684C69.7574 60.8446 70.045 60.9292 70.33 60.9292C70.7818 60.9292 71.2266 60.7164 71.506 60.3187C72.1235 59.4395 72.6947 58.5152 73.204 57.5716C73.5807 56.8737 73.3202 56.0028 72.6225 55.6263Z" fill="white"/>
<path d="M34.4702 64.4531C33.6937 63.8873 32.942 63.269 32.2355 62.6155C31.6537 62.0771 30.7452 62.1125 30.2068 62.6944C29.6684 63.2765 29.7038 64.1847 30.2857 64.7231C31.0737 65.4522 31.9126 66.142 32.7789 66.7735C33.0347 66.9593 33.3304 67.0489 33.6236 67.0489C34.0667 67.0489 34.5041 66.8443 34.7849 66.4588C35.2519 65.8182 35.1111 64.9201 34.4702 64.4531Z" fill="white"/>
<path d="M59.8031 68.2983C59.5147 67.5601 58.6822 67.1952 57.9436 67.4841C57.8527 67.5195 57.7616 67.5545 57.6705 67.589C56.9288 67.8692 56.5546 68.6976 56.8348 69.4393C57.0518 70.0139 57.5979 70.3678 58.1781 70.3678C58.3465 70.3678 58.518 70.3379 58.6851 70.2748C58.7866 70.2365 58.8878 70.1976 58.9887 70.158C59.7271 69.8694 60.0918 69.0368 59.8031 68.2983Z" fill="white"/>
<path d="M28.4819 58.2258C27.9462 57.4265 27.4527 56.5879 27.0154 55.7335C26.6542 55.0278 25.7896 54.7481 25.0835 55.1095C24.3778 55.4707 24.0985 56.3357 24.4597 57.0414C24.948 57.9957 25.499 58.9321 26.0974 59.8244C26.3741 60.2377 26.8284 60.4609 27.291 60.4609C27.5658 60.4609 27.8436 60.382 28.089 60.2176C28.7474 59.776 28.9235 58.8843 28.4819 58.2258Z" fill="white"/>
<path d="M74.9975 46.7851C74.2124 46.6739 73.4862 47.2205 73.375 48.0053C73.2402 48.9583 73.0473 49.9125 72.8015 50.841C72.5986 51.6074 73.0557 52.3931 73.8221 52.596C73.9452 52.6285 74.0686 52.644 74.1902 52.644C74.8257 52.644 75.4068 52.2187 75.5771 51.5752C75.8516 50.5376 76.0671 49.4719 76.2178 48.4073C76.329 47.6225 75.7825 46.8961 74.9975 46.7851Z" fill="white"/>
<path d="M48.9712 24.6718C38.0271 24.6718 29.1237 33.5754 29.1237 44.5195C29.1237 51.5857 32.9279 58.1743 39.0519 61.7141C39.2782 61.8449 39.5253 61.9071 39.7691 61.9071C40.2649 61.9071 40.7472 61.6498 41.0133 61.1897C41.41 60.5033 41.1752 59.6251 40.4888 59.2283C35.2494 56.1997 31.9948 50.5635 31.9948 44.5193C31.9948 35.1584 39.6104 27.5427 48.9712 27.5427C58.3319 27.5427 65.9476 35.1584 65.9476 44.5193C65.9476 50.5611 62.695 56.1959 57.4591 59.2251C56.7729 59.6221 56.5384 60.5002 56.9354 61.1866C57.3324 61.8728 58.2106 62.1073 58.8969 61.7103C65.017 58.1697 68.8187 51.5824 68.8187 44.5193C68.8187 33.5754 59.915 24.6718 48.9712 24.6718Z" fill="white"/>
</g>
<defs>
<clipPath id="clip0">
<rect width="98" height="98" fill="white" transform="translate(0 17)"/>
</clipPath>
</defs>
</svg>
