<svg width="364" height="388" viewBox="0 0 364 388" fill="none" xmlns="http://www.w3.org/2000/svg">
<path d="M155.065 27.0753L160.873 21.2669H124.699V27.0753H126.913H155.065Z" fill="#287198"/>
<path d="M228.087 27.0753H230.301V21.2669H194.127L199.935 27.0753H228.087Z" fill="#287198"/>
<path d="M230.851 92.6209H228.087V29.8397H198.79L181.325 12.375H173.675L156.21 29.8397H126.913V92.6209H124.149H120V102.625H235V92.6209H230.851ZM141.632 85.4012H133.891V65.2208H141.632V85.4012ZM141.632 57.7571H133.891V37.577H141.632V57.7571ZM174.551 88.9029H158.333V53.6107H174.551V88.9029ZM168.723 36.4943C168.723 31.647 172.652 27.7171 177.5 27.7171C182.348 27.7171 186.277 31.647 186.277 36.4943C186.277 41.3419 182.348 45.2712 177.5 45.2712C172.653 45.2712 168.723 41.3419 168.723 36.4943ZM196.667 88.9029H180.449V53.6107H196.667V88.9029ZM221.109 85.4012H213.368V65.2208H221.109V85.4012ZM221.109 57.7571H213.368V37.577H221.109V57.7571Z" fill="#287198"/>
<path d="M284.065 162.075L289.873 156.267H253.699V162.075H255.913H284.065Z" fill="#287198"/>
<path d="M357.087 162.075H359.301V156.267H323.127L328.935 162.075H357.087Z" fill="#287198"/>
<path d="M359.851 227.621H357.087V164.84H327.79L310.325 147.375H302.675L285.21 164.84H255.913V227.621H253.149H249V237.625H364V227.621H359.851ZM270.632 220.401H262.891V200.221H270.632V220.401ZM270.632 192.757H262.891V172.577H270.632V192.757ZM303.551 223.903H287.333V188.611H303.551V223.903ZM297.723 171.494C297.723 166.647 301.652 162.717 306.5 162.717C311.348 162.717 315.277 166.647 315.277 171.494C315.277 176.342 311.348 180.271 306.5 180.271C301.653 180.271 297.723 176.342 297.723 171.494ZM325.667 223.903H309.449V188.611H325.667V223.903ZM350.109 220.401H342.368V200.221H350.109V220.401ZM350.109 192.757H342.368V172.577H350.109V192.757Z" fill="#287198"/>
<path d="M35.0647 162.075L40.8732 156.267H4.69937V162.075H6.91343H35.0647Z" fill="#287198"/>
<path d="M108.087 162.075H110.301V156.267H74.1268L79.9352 162.075H108.087Z" fill="#287198"/>
<path d="M110.851 227.621H108.087V164.84H78.79L61.3254 147.375H53.6746L36.21 164.84H6.91342V227.621H4.14904H0V237.625H115V227.621H110.851ZM21.6316 220.401H13.8911V200.221H21.6316V220.401ZM21.6316 192.757H13.8911V172.577H21.6316V192.757ZM54.5512 223.903H38.3334V188.611H54.5512V223.903ZM48.7228 171.494C48.7228 166.647 52.6524 162.717 57.5 162.717C62.3476 162.717 66.2772 166.647 66.2772 171.494C66.2772 176.342 62.3476 180.271 57.5 180.271C52.6527 180.271 48.7228 176.342 48.7228 171.494ZM76.6666 223.903H60.4488V188.611H76.6666V223.903ZM101.109 220.401H93.3684V200.221H101.109V220.401ZM101.109 192.757H93.3684V172.577H101.109V192.757Z" fill="#287198"/>
<path d="M155.065 300.075L160.873 294.267H124.699V300.075H126.913H155.065Z" fill="#287198"/>
<path d="M228.087 300.075H230.301V294.267H194.127L199.935 300.075H228.087Z" fill="#287198"/>
<path d="M230.851 365.621H228.087V302.84H198.79L181.325 285.375H173.675L156.21 302.84H126.913V365.621H124.149H120V375.625H235V365.621H230.851ZM141.632 358.401H133.891V338.221H141.632V358.401ZM141.632 330.757H133.891V310.577H141.632V330.757ZM174.551 361.903H158.333V326.611H174.551V361.903ZM168.723 309.494C168.723 304.647 172.652 300.717 177.5 300.717C182.348 300.717 186.277 304.647 186.277 309.494C186.277 314.342 182.348 318.271 177.5 318.271C172.653 318.271 168.723 314.342 168.723 309.494ZM196.667 361.903H180.449V326.611H196.667V361.903ZM221.109 358.401H213.368V338.221H221.109V358.401ZM221.109 330.757H213.368V310.577H221.109V330.757Z" fill="#287198"/>
<path d="M166.698 229.129V239.588C166.698 240.602 165.876 241.423 164.863 241.423H153.853C152.84 241.423 152.019 240.602 152.019 239.588V222.891" fill="#C03A2B"/>
<path d="M203.395 222.891V239.588C203.395 240.602 202.574 241.423 201.56 241.423H190.551C189.538 241.423 188.716 240.602 188.716 239.588V229.129" fill="#C03A2B"/>
<path d="M177.707 230.414C204.055 230.414 225.414 209.055 225.414 182.707C225.414 156.359 204.055 135 177.707 135C151.359 135 130 156.359 130 182.707C130 209.055 151.359 230.414 177.707 230.414Z" fill="#F29C1F"/>
<path d="M177.707 223.074C200.001 223.074 218.074 205.001 218.074 182.707C218.074 160.413 200.001 142.34 177.707 142.34C155.413 142.34 137.339 160.413 137.339 182.707C137.339 205.001 155.413 223.074 177.707 223.074Z" fill="#90BAE1"/>
<path d="M177.707 219.405C197.974 219.405 214.404 202.974 214.404 182.707C214.404 162.439 197.974 146.009 177.707 146.009C157.439 146.009 141.009 162.439 141.009 182.707C141.009 202.974 157.439 219.405 177.707 219.405Z" fill="#B0D3F0"/>
<path d="M163.065 199.184L157.89 204.358C157.18 205.075 156.024 205.083 155.303 204.377C143.434 192.162 143.589 172.675 155.652 160.652L163.432 168.431C155.677 176.184 155.538 188.712 163.12 196.634C163.792 197.36 163.768 198.488 163.065 199.184Z" fill="#24AE5F"/>
<path d="M199.744 160.67L191.982 168.432C184.093 160.561 171.321 160.561 163.432 168.432L155.652 160.652C161.496 154.797 169.429 151.509 177.702 151.512C185.974 151.516 193.904 154.811 199.744 160.67Z" fill="#E57E25"/>
<path d="M208.9 182.707C208.906 190.764 205.781 198.507 200.184 204.303C199.841 204.667 199.365 204.877 198.865 204.888C198.365 204.898 197.882 204.707 197.524 204.358L192.349 199.184C191.646 198.495 191.621 197.371 192.294 196.652C196.742 191.998 198.711 185.506 197.597 179.166C196.892 175.089 194.929 171.335 191.982 168.432L199.744 160.67C205.608 166.504 208.903 174.435 208.9 182.707Z" fill="#C03A2B"/>
<path d="M201.56 184.542H181.377C180.363 184.542 179.542 183.72 179.542 182.707C179.542 181.694 180.363 180.872 181.377 180.872H201.56C202.574 180.872 203.395 181.694 203.395 182.707C203.395 183.72 202.574 184.542 201.56 184.542Z" fill="#2C3E50"/>
<path d="M174.037 184.542H166.698C165.684 184.542 164.863 183.72 164.863 182.707C164.863 181.694 165.684 180.872 166.698 180.872H174.037C175.051 180.872 175.872 181.694 175.872 182.707C175.872 183.72 175.051 184.542 174.037 184.542Z" fill="#2C3E50"/>
<path d="M177.707 186.377C179.734 186.377 181.377 184.734 181.377 182.707C181.377 180.68 179.734 179.037 177.707 179.037C175.68 179.037 174.037 180.68 174.037 182.707C174.037 184.734 175.68 186.377 177.707 186.377Z" fill="#4482C3"/>
</svg>
