<svg width="96" height="107" viewBox="0 0 96 107" fill="none" xmlns="http://www.w3.org/2000/svg">
<path d="M36.6977 94.1293V104.588C36.6977 105.602 35.8762 106.423 34.8628 106.423H23.8535C22.8401 106.423 22.0186 105.602 22.0186 104.588V87.8907" fill="#C03A2B"/>
<path d="M73.3952 87.8907V104.588C73.3952 105.602 72.5737 106.423 71.5603 106.423H60.551C59.5376 106.423 58.7161 105.602 58.7161 104.588V94.1293" fill="#C03A2B"/>
<path d="M47.7069 95.4138C74.0547 95.4138 95.4138 74.0547 95.4138 47.7069C95.4138 21.3591 74.0547 0 47.7069 0C21.3591 0 0 21.3591 0 47.7069C0 74.0547 21.3591 95.4138 47.7069 95.4138Z" fill="#F29C1F"/>
<path d="M47.7068 88.0743C70.0011 88.0743 88.0742 70.0012 88.0742 47.7069C88.0742 25.4126 70.0011 7.33954 47.7068 7.33954C25.4126 7.33954 7.33948 25.4126 7.33948 47.7069C7.33948 70.0012 25.4126 88.0743 47.7068 88.0743Z" fill="#90BAE1"/>
<path d="M47.7069 84.4045C67.9744 84.4045 84.4045 67.9744 84.4045 47.7069C84.4045 27.4394 67.9744 11.0093 47.7069 11.0093C27.4394 11.0093 11.0093 27.4394 11.0093 47.7069C11.0093 67.9744 27.4394 84.4045 47.7069 84.4045Z" fill="#B0D3F0"/>
<path d="M33.0646 64.1841L27.8902 69.3584C27.1796 70.075 26.0237 70.0832 25.303 69.3768C13.4336 57.1623 13.589 37.6752 25.6516 25.6516L33.4315 33.4315C25.6765 41.1836 25.5379 53.7119 33.1196 61.6336C33.7919 62.3595 33.7676 63.4878 33.0646 64.1841Z" fill="#24AE5F"/>
<path d="M69.7438 25.67L61.9823 33.4315C54.0926 25.561 41.3212 25.561 33.4315 33.4315L25.6516 25.6516C31.4958 19.7973 39.4294 16.509 47.7015 16.5124C55.9737 16.5159 63.9045 19.8107 69.7438 25.67Z" fill="#E57E25"/>
<path d="M78.8998 47.7069C78.9057 55.7637 75.7805 63.5075 70.1841 69.3034C69.8405 69.6669 69.3655 69.8774 68.8654 69.8878C68.3653 69.8981 67.8819 69.7074 67.5236 69.3585L62.3492 64.1841C61.6456 63.4954 61.6211 62.3706 62.2941 61.652C66.7422 56.9983 68.711 50.506 67.597 44.1656C66.8924 40.089 64.9289 36.3353 61.9822 33.4315L69.7438 25.67C75.608 31.5036 78.9035 39.4352 78.8998 47.7069Z" fill="#C03A2B"/>
<path d="M71.5602 49.5418H51.3766C50.3632 49.5418 49.5417 48.7203 49.5417 47.7069C49.5417 46.6935 50.3632 45.872 51.3766 45.872H71.5602C72.5736 45.872 73.3951 46.6935 73.3951 47.7069C73.3951 48.7203 72.5736 49.5418 71.5602 49.5418Z" fill="#2C3E50"/>
<path d="M44.0372 49.5418H36.6977C35.6843 49.5418 34.8628 48.7203 34.8628 47.7069C34.8628 46.6935 35.6843 45.872 36.6977 45.872H44.0372C45.0506 45.872 45.8721 46.6935 45.8721 47.7069C45.8721 48.7203 45.0506 49.5418 44.0372 49.5418Z" fill="#2C3E50"/>
<path d="M47.7069 51.3767C49.7337 51.3767 51.3767 49.7337 51.3767 47.7069C51.3767 45.6801 49.7337 44.0371 47.7069 44.0371C45.6802 44.0371 44.0372 45.6801 44.0372 47.7069C44.0372 49.7337 45.6802 51.3767 47.7069 51.3767Z" fill="#4482C3"/>
</svg>
